<svg width="120" height="33" viewBox="0 0 120 33" fill="none" xmlns="http://www.w3.org/2000/svg">
<rect x="0.5" y="0.5" width="119" height="32" rx="16" fill="#F5C359"/>
<path d="M13.3188 20.072H24.7848V21.038H13.3188V20.072ZM18.4428 17.356H19.6048V20.478H18.4428V17.356ZM14.7048 10.874H23.3708V14.71H15.8948V17.244H14.7468V13.772H22.2228V11.812H14.7048V10.874ZM14.7468 16.754H23.6648V17.706H14.7468V16.754ZM26.7297 11.28H34.8777V12.218H26.7297V11.28ZM25.4977 19.778H36.9357V20.744H25.4977V19.778ZM34.2617 11.28H35.3957V12.54C35.3957 14.164 35.3957 15.97 34.9197 18.7L33.7577 18.588C34.2617 15.998 34.2617 14.108 34.2617 12.54V11.28ZM46.8746 9.95H48.0506V19.19H46.8746V9.95ZM39.9166 21.36H48.4286V22.312H39.9166V21.36ZM39.9166 18.238H41.0646V21.682H39.9166V18.238ZM41.2606 10.818C43.1506 10.818 44.5506 12.106 44.5506 13.94C44.5506 15.76 43.1506 17.062 41.2606 17.062C39.3706 17.062 37.9566 15.76 37.9566 13.94C37.9566 12.106 39.3706 10.818 41.2606 10.818ZM41.2606 11.826C40.0286 11.826 39.0906 12.694 39.0906 13.94C39.0906 15.172 40.0286 16.04 41.2606 16.04C42.4926 16.04 43.4306 15.172 43.4306 13.94C43.4306 12.694 42.4926 11.826 41.2606 11.826ZM62.2636 17.524H63.4396V19.61H62.2636V17.524ZM67.8076 9.936H68.9696V22.592H67.8076V9.936ZM58.8896 20.184L58.7356 19.218C61.1296 19.204 64.2796 19.176 67.0096 18.826L67.0936 19.68C64.2796 20.156 61.2276 20.184 58.8896 20.184ZM59.0016 11.476H66.6876V12.414H59.0016V11.476ZM62.8376 13.142C64.6576 13.142 65.8896 14.066 65.8896 15.48C65.8896 16.908 64.6576 17.818 62.8376 17.818C61.0316 17.818 59.7996 16.908 59.7996 15.48C59.7996 14.066 61.0316 13.142 62.8376 13.142ZM62.8376 14.038C61.7036 14.038 60.9056 14.612 60.9056 15.48C60.9056 16.348 61.7036 16.922 62.8376 16.922C63.9856 16.922 64.7836 16.348 64.7836 15.48C64.7836 14.612 63.9856 14.038 62.8376 14.038ZM62.2636 9.936H63.4256V11.994H62.2636V9.936ZM74.4285 16.306H75.5905V19.12H74.4285V16.306ZM80.0425 9.936H81.2045V19.568H80.0425V9.936ZM72.5665 21.36H81.5125V22.312H72.5665V21.36ZM72.5665 18.63H73.7285V21.626H72.5665V18.63ZM70.9285 16.74L70.7745 15.788C73.1125 15.788 76.2485 15.76 78.9365 15.41L79.0205 16.264C76.2905 16.698 73.2245 16.74 70.9285 16.74ZM77.4665 17.412H80.3365V18.266H77.4665V17.412ZM74.8905 10.454C76.7385 10.454 77.9985 11.322 77.9985 12.652C77.9985 13.996 76.7385 14.864 74.8905 14.864C73.0285 14.864 71.7685 13.996 71.7685 12.652C71.7685 11.322 73.0285 10.454 74.8905 10.454ZM74.8905 11.322C73.7005 11.322 72.8745 11.84 72.8745 12.652C72.8745 13.464 73.7005 13.982 74.8905 13.982C76.0665 13.982 76.8925 13.464 76.8925 12.652C76.8925 11.84 76.0665 11.322 74.8905 11.322ZM91.5774 9.922H92.7534V22.592H91.5774V9.922ZM92.4314 15.06H94.7694V16.026H92.4314V15.06ZM88.3434 11.294H89.4774C89.4774 14.892 87.8254 18.14 83.7374 20.198L83.0934 19.302C86.5934 17.524 88.3434 14.822 88.3434 11.476V11.294ZM83.6814 11.294H88.9454V12.246H83.6814V11.294ZM104.4 9.936H105.576V16.726H104.4V9.936ZM97.4143 17.356H98.5623V18.896H104.428V17.356H105.576V22.424H97.4143V17.356ZM98.5623 19.82V21.486H104.428V19.82H98.5623ZM98.7863 10.538C100.704 10.538 102.076 11.728 102.076 13.45C102.076 15.186 100.704 16.376 98.7863 16.376C96.8683 16.376 95.4823 15.186 95.4823 13.45C95.4823 11.728 96.8683 10.538 98.7863 10.538ZM98.7863 11.504C97.5263 11.504 96.6163 12.302 96.6163 13.45C96.6163 14.598 97.5263 15.396 98.7863 15.396C100.046 15.396 100.956 14.598 100.956 13.45C100.956 12.302 100.046 11.504 98.7863 11.504Z" fill="#272727"/>
<rect x="0.5" y="0.5" width="119" height="32" rx="16" stroke="#272727"/>
<rect x="54" y="9" width="1" height="15" fill="#272727"/>
</svg>
