<svg width="240" height="63" viewBox="0 0 240 63" fill="none" xmlns="http://www.w3.org/2000/svg">
<g filter="url(#filter0_b_1836_9078)">
<path fill-rule="evenodd" clip-rule="evenodd" d="M0 11.0112C0 4.9361 4.92487 0.0112305 11 0.0112305H229C235.075 0.0112305 240 4.9361 240 11.0112V51.0112C240 57.0864 235.075 62.0112 229 62.0112H11C4.92487 62.0112 0 57.0864 0 51.0112V37.3811C3.25547 37.381 5.89451 34.7193 5.89451 31.4359C5.89451 28.1526 3.25547 25.4908 0 25.4907V11.0112Z" fill="#F5C359"/>
</g>
<path d="M54.3 23.32H56.5V24.88C56.5 28.38 54.8 31.54 51.24 32.7L49.88 30.62C52.96 29.62 54.3 27.22 54.3 24.88V23.32ZM54.84 23.32H57.02V24.88C57.02 27.08 58.34 29.34 61.36 30.3L60 32.36C56.52 31.26 54.84 28.24 54.84 24.88V23.32ZM50.58 22.58H60.66V24.68H50.58V22.58ZM62.52 21.28H65.2V34.64H62.52V21.28ZM52.86 37.34H65.66V39.46H52.86V37.34ZM52.86 33.44H55.52V38.4H52.86V33.44ZM80.1184 21.26H82.7784V34.64H80.1184V21.26ZM82.0184 26.3H85.2384V28.48H82.0184V26.3ZM68.8984 29.48H70.4384C74.4584 29.48 76.4584 29.4 78.6784 28.92L78.9384 31.02C76.6784 31.52 74.5584 31.62 70.4384 31.62H68.8984V29.48ZM68.8984 22.72H77.1784V24.86H71.5384V30.62H68.8984V22.72ZM70.8384 37.34H83.4384V39.46H70.8384V37.34ZM70.8384 33.24H73.4984V38.42H70.8384V33.24ZM96.3122 22.68H98.4722V25.38C98.4722 30.14 96.8322 34.44 93.1522 36.14L91.5722 33.94C94.7922 32.54 96.3122 28.98 96.3122 25.38V22.68ZM96.8322 22.68H98.9922V25.38C98.9922 28.8 100.452 32.2 103.612 33.56L102.052 35.7C98.4722 34.06 96.8322 29.94 96.8322 25.38V22.68ZM104.492 21.24H107.172V39.82H104.492V21.24ZM114.311 23.16H116.491V24.32C116.491 27.82 114.831 30.96 111.291 32.1L109.911 30.04C113.011 29.04 114.311 26.64 114.311 24.32V23.16ZM114.851 23.16H117.011V24.32C117.011 26.5 118.271 28.76 121.271 29.72L119.911 31.78C116.451 30.66 114.851 27.64 114.851 24.32V23.16ZM110.631 22.34H120.631V24.46H110.631V22.34ZM122.111 21.26H124.771V32.42H122.111V21.26ZM124.031 25.74H127.231V27.92H124.031V25.74ZM112.411 33.22H124.771V39.78H122.111V35.36H112.411V33.22ZM140.469 21.26H143.109V39.78H140.469V21.26ZM142.509 28.48H145.789V30.7H142.509V28.48ZM128.509 24H139.289V26.12H128.509V24ZM133.929 27.16C136.629 27.16 138.629 29 138.629 31.58C138.629 34.16 136.629 36 133.929 36C131.229 36 129.229 34.16 129.229 31.58C129.229 29 131.229 27.16 133.929 27.16ZM133.929 29.32C132.669 29.32 131.769 30.16 131.769 31.58C131.769 33 132.669 33.84 133.929 33.84C135.189 33.84 136.089 33 136.089 31.58C136.089 30.16 135.189 29.32 133.929 29.32ZM132.589 21.56H135.249V24.8H132.589V21.56ZM159.748 21.26H162.428V39.78H159.748V21.26ZM154.288 23.18H156.928C156.928 28.84 155.008 33.48 148.428 36.66L147.048 34.54C152.368 31.98 154.288 28.62 154.288 23.66V23.18ZM148.028 23.18H155.548V25.28H148.028V23.18Z" fill="black"/>
<path fill-rule="evenodd" clip-rule="evenodd" d="M207.448 31.0001L197.724 21.2762L199.609 19.3906L211.219 31.0001L199.609 42.6096L197.724 40.724L207.448 31.0001Z" fill="black"/>
<defs>
<filter id="filter0_b_1836_9078" x="-4" y="-3.98877" width="248" height="70" filterUnits="userSpaceOnUse" color-interpolation-filters="sRGB">
<feFlood flood-opacity="0" result="BackgroundImageFix"/>
<feGaussianBlur in="BackgroundImageFix" stdDeviation="2"/>
<feComposite in2="SourceAlpha" operator="in" result="effect1_backgroundBlur_1836_9078"/>
<feBlend mode="normal" in="SourceGraphic" in2="effect1_backgroundBlur_1836_9078" result="shape"/>
</filter>
</defs>
</svg>
