<svg width="200" height="50" viewBox="0 0 200 50" fill="none" xmlns="http://www.w3.org/2000/svg">
<rect x="0.5" y="0.5" width="199" height="49" rx="24.5" fill="#F5C359" stroke="black"/>
<path d="M67.098 17.878H76.152V19.102H67.098V17.878ZM66.864 28.39L66.684 27.112C69.618 27.112 73.56 27.076 76.908 26.662L76.998 27.778C73.596 28.336 69.726 28.39 66.864 28.39ZM68.844 18.796H70.302V27.454H68.844V18.796ZM72.948 18.796H74.406V27.454H72.948V18.796ZM77.898 16.132H79.41V32.404H77.898V16.132ZM79.05 22.63H82.074V23.89H79.05V22.63ZM87.1126 16.726C89.5426 16.726 91.3246 18.202 91.3246 20.344C91.3246 22.468 89.5426 23.944 87.1126 23.944C84.7006 23.944 82.9186 22.468 82.9186 20.344C82.9186 18.202 84.7006 16.726 87.1126 16.726ZM87.1126 17.95C85.5466 17.95 84.3586 18.94 84.3586 20.344C84.3586 21.748 85.5466 22.72 87.1126 22.72C88.6966 22.72 89.8666 21.748 89.8666 20.344C89.8666 18.94 88.6966 17.95 87.1126 17.95ZM94.3846 16.132H95.8966V24.466H94.3846V16.132ZM85.3666 25.258H95.8966V29.218H86.8606V31.666H85.4026V28.102H94.4206V26.464H85.3666V25.258ZM85.4026 31H96.4366V32.188H85.4026V31ZM110.327 19.966H114.431V21.208H110.327V19.966ZM106.061 17.122H107.267V19.12C107.267 22.27 105.503 24.898 102.785 25.996L102.011 24.808C104.423 23.908 106.061 21.604 106.061 19.12V17.122ZM106.349 17.122H107.555V19.174C107.555 21.442 109.139 23.584 111.497 24.448L110.687 25.6C108.095 24.592 106.349 22.072 106.349 19.174V17.122ZM113.873 16.15H115.367V28.318H113.873V16.15ZM104.909 30.82H115.763V32.044H104.909V30.82ZM104.909 26.968H106.403V31.396H104.909V26.968ZM118.336 23.908H119.38C121.936 23.908 123.448 23.854 125.266 23.494L125.41 24.718C123.538 25.078 121.99 25.15 119.38 25.15H118.336V23.908ZM118.336 17.32H124.636V18.544H119.776V24.574H118.336V17.32ZM119.326 20.56H124.438V21.73H119.326V20.56ZM129.928 16.132H131.35V25.996H129.928V16.132ZM127.3 20.38H130.378V21.604H127.3V20.38ZM126.346 16.438H127.75V25.906H126.346V16.438ZM120.442 26.86H131.35V32.404H129.874V28.084H120.442V26.86Z" fill="black"/>
</svg>
