<svg width="200" height="50" viewBox="0 0 200 50" fill="none" xmlns="http://www.w3.org/2000/svg">
<rect x="0.5" y="0.5" width="199" height="49" rx="24.5" fill="#F5C359" stroke="black"/>
<path d="M61.898 16.114H63.41V32.404H61.898V16.114ZM62.996 22.72H66.002V23.962H62.996V22.72ZM57.74 17.878H59.198C59.198 22.504 57.074 26.68 51.818 29.326L50.99 28.174C55.49 25.888 57.74 22.414 57.74 18.112V17.878ZM51.746 17.878H58.514V19.102H51.746V17.878ZM70.5006 16.978H71.7426V18.634C71.7426 21.766 69.9786 24.358 67.2606 25.42L66.4686 24.214C68.9166 23.314 70.5006 21.118 70.5006 18.634V16.978ZM70.7706 16.978H71.9946V18.742C71.9946 20.938 73.6146 22.972 75.9546 23.782L75.1626 24.952C72.5526 23.98 70.7706 21.568 70.7706 18.742V16.978ZM77.6826 16.132H79.1766V25.996H77.6826V16.132ZM78.7626 20.326H81.5886V21.586H78.7626V20.326ZM73.9926 26.446C77.3226 26.446 79.3386 27.544 79.3386 29.416C79.3386 31.288 77.3226 32.368 73.9926 32.368C70.6626 32.368 68.6466 31.288 68.6466 29.416C68.6466 27.544 70.6626 26.446 73.9926 26.446ZM73.9926 27.634C71.5806 27.634 70.1046 28.282 70.1046 29.416C70.1046 30.55 71.5806 31.198 73.9926 31.198C76.4046 31.198 77.8806 30.55 77.8806 29.416C77.8806 28.282 76.4046 27.634 73.9926 27.634ZM86.569 18.004H92.779V28.048H86.569V18.004ZM91.375 19.192H87.973V26.86H91.375V19.192ZM98.377 16.132H99.817V32.404H98.377V16.132ZM92.023 22.252H95.767V23.494H92.023V22.252ZM95.155 16.474H96.577V31.594H95.155V16.474ZM113.46 16.114H114.954V32.422H113.46V16.114ZM106.368 17.374C108.78 17.374 110.508 19.588 110.508 23.044C110.508 26.518 108.78 28.732 106.368 28.732C103.974 28.732 102.246 26.518 102.246 23.044C102.246 19.588 103.974 17.374 106.368 17.374ZM106.368 18.724C104.784 18.724 103.668 20.416 103.668 23.044C103.668 25.69 104.784 27.418 106.368 27.418C107.97 27.418 109.068 25.69 109.068 23.044C109.068 20.416 107.97 18.724 106.368 18.724ZM119.056 17.788H129.388V19.012H119.056V17.788ZM117.31 28.894H132.016V30.154H117.31V28.894ZM128.74 17.788H130.198V19.786C130.198 22.18 130.198 24.394 129.514 27.724L128.038 27.58C128.74 24.448 128.74 22.126 128.74 19.786V17.788ZM129.118 22.288V23.404L118.84 23.962L118.624 22.72L129.118 22.288ZM141.141 20.002H145.515V21.244H141.141V20.002ZM137.397 16.87C139.827 16.87 141.591 18.418 141.591 20.65C141.591 22.882 139.827 24.412 137.397 24.412C134.967 24.412 133.203 22.882 133.203 20.65C133.203 18.418 134.967 16.87 137.397 16.87ZM137.397 18.13C135.795 18.13 134.643 19.156 134.643 20.65C134.643 22.126 135.795 23.17 137.397 23.17C138.999 23.17 140.151 22.126 140.151 20.65C140.151 19.156 138.999 18.13 137.397 18.13ZM144.849 16.132H146.343V24.862H144.849V16.132ZM135.921 25.672H137.415V27.724H144.867V25.672H146.343V32.188H135.921V25.672ZM137.415 28.912V30.982H144.867V28.912H137.415Z" fill="black"/>
</svg>
