<svg width="120" height="33" viewBox="0 0 120 33" fill="none" xmlns="http://www.w3.org/2000/svg">
<rect x="0.5" y="0.5" width="119" height="32" rx="16" fill="#F5C359"/>
<path d="M11.2816 20.072H22.7476V21.038H11.2816V20.072ZM16.4056 17.356H17.5676V20.478H16.4056V17.356ZM12.6676 10.874H21.3336V14.71H13.8576V17.244H12.7096V13.772H20.1856V11.812H12.6676V10.874ZM12.7096 16.754H21.6276V17.706H12.7096V16.754ZM24.6925 11.28H32.8405V12.218H24.6925V11.28ZM23.4605 19.778H34.8985V20.744H23.4605V19.778ZM32.2245 11.28H33.3585V12.54C33.3585 14.164 33.3585 15.97 32.8825 18.7L31.7205 18.588C32.2245 15.998 32.2245 14.108 32.2245 12.54V11.28ZM44.8375 9.95H46.0135V19.19H44.8375V9.95ZM37.8795 21.36H46.3915V22.312H37.8795V21.36ZM37.8795 18.238H39.0275V21.682H37.8795V18.238ZM39.2235 10.818C41.1135 10.818 42.5135 12.106 42.5135 13.94C42.5135 15.76 41.1135 17.062 39.2235 17.062C37.3335 17.062 35.9195 15.76 35.9195 13.94C35.9195 12.106 37.3335 10.818 39.2235 10.818ZM39.2235 11.826C37.9915 11.826 37.0535 12.694 37.0535 13.94C37.0535 15.172 37.9915 16.04 39.2235 16.04C40.4555 16.04 41.3935 15.172 41.3935 13.94C41.3935 12.694 40.4555 11.826 39.2235 11.826ZM53.3311 10.874H54.4931V24.818H53.3311V10.874ZM64.3007 17.524H65.4767V19.61H64.3007V17.524ZM69.8447 9.936H71.0067V22.592H69.8447V9.936ZM60.9267 20.184L60.7727 19.218C63.1667 19.204 66.3167 19.176 69.0467 18.826L69.1307 19.68C66.3167 20.156 63.2647 20.184 60.9267 20.184ZM61.0387 11.476H68.7247V12.414H61.0387V11.476ZM64.8747 13.142C66.6947 13.142 67.9267 14.066 67.9267 15.48C67.9267 16.908 66.6947 17.818 64.8747 17.818C63.0687 17.818 61.8367 16.908 61.8367 15.48C61.8367 14.066 63.0687 13.142 64.8747 13.142ZM64.8747 14.038C63.7407 14.038 62.9427 14.612 62.9427 15.48C62.9427 16.348 63.7407 16.922 64.8747 16.922C66.0227 16.922 66.8207 16.348 66.8207 15.48C66.8207 14.612 66.0227 14.038 64.8747 14.038ZM64.3007 9.936H65.4627V11.994H64.3007V9.936ZM76.4656 16.306H77.6276V19.12H76.4656V16.306ZM82.0796 9.936H83.2416V19.568H82.0796V9.936ZM74.6036 21.36H83.5496V22.312H74.6036V21.36ZM74.6036 18.63H75.7656V21.626H74.6036V18.63ZM72.9656 16.74L72.8116 15.788C75.1496 15.788 78.2856 15.76 80.9736 15.41L81.0576 16.264C78.3276 16.698 75.2616 16.74 72.9656 16.74ZM79.5036 17.412H82.3736V18.266H79.5036V17.412ZM76.9276 10.454C78.7756 10.454 80.0356 11.322 80.0356 12.652C80.0356 13.996 78.7756 14.864 76.9276 14.864C75.0656 14.864 73.8056 13.996 73.8056 12.652C73.8056 11.322 75.0656 10.454 76.9276 10.454ZM76.9276 11.322C75.7376 11.322 74.9116 11.84 74.9116 12.652C74.9116 13.464 75.7376 13.982 76.9276 13.982C78.1036 13.982 78.9296 13.464 78.9296 12.652C78.9296 11.84 78.1036 11.322 76.9276 11.322ZM93.6146 9.922H94.7906V22.592H93.6146V9.922ZM94.4686 15.06H96.8066V16.026H94.4686V15.06ZM90.3806 11.294H91.5146C91.5146 14.892 89.8626 18.14 85.7745 20.198L85.1305 19.302C88.6306 17.524 90.3806 14.822 90.3806 11.476V11.294ZM85.7185 11.294H90.9826V12.246H85.7185V11.294ZM106.437 9.936H107.613V16.726H106.437V9.936ZM99.4515 17.356H100.599V18.896H106.465V17.356H107.613V22.424H99.4515V17.356ZM100.599 19.82V21.486H106.465V19.82H100.599ZM100.823 10.538C102.741 10.538 104.113 11.728 104.113 13.45C104.113 15.186 102.741 16.376 100.823 16.376C98.9055 16.376 97.5195 15.186 97.5195 13.45C97.5195 11.728 98.9055 10.538 100.823 10.538ZM100.823 11.504C99.5635 11.504 98.6535 12.302 98.6535 13.45C98.6535 14.598 99.5635 15.396 100.823 15.396C102.083 15.396 102.993 14.598 102.993 13.45C102.993 12.302 102.083 11.504 100.823 11.504Z" fill="#272727"/>
<rect x="0.5" y="0.5" width="119" height="32" rx="16" stroke="#272727"/>
</svg>
