<svg width="220" height="40" viewBox="0 0 220 40" fill="none" xmlns="http://www.w3.org/2000/svg">
<path d="M18.216 32.64C14.376 32.64 11.336 31.6693 9.096 29.728C6.87733 27.7653 5.768 25.0027 5.768 21.44C5.768 19.264 6.12 17.3547 6.824 15.712C7.54933 14.0693 8.56267 12.7573 9.864 11.776C12.4453 9.83467 15.848 8.864 20.072 8.864C22.8027 8.864 25.5333 9.23733 28.264 9.984C29.3093 10.3253 29.832 11.168 29.832 12.512C29.832 14.3467 29.256 15.264 28.104 15.264C27.912 15.264 27.2827 15.1787 26.216 15.008C25.1493 14.8373 24.4027 14.752 23.976 14.752C22.4613 14.752 21.288 15.2853 20.456 16.352C19.6453 17.3973 19.24 18.656 19.24 20.128C19.24 21.5787 19.624 22.8587 20.392 23.968C21.16 25.0773 22.2053 25.6533 23.528 25.696C24.424 25.7387 26.0133 25.76 28.296 25.76C29.4053 25.76 30.0133 26.2827 30.12 27.328C30.184 27.712 30.216 28.1067 30.216 28.512C30.216 28.896 30.184 29.2907 30.12 29.696C29.992 30.464 29.3947 31.0293 28.328 31.392C27.2613 31.7333 25.7253 32.0213 23.72 32.256C21.7147 32.512 19.88 32.64 18.216 32.64Z" fill="#F5C359"/>
<path d="M9.096 29.728L7.77085 31.226L7.77846 31.2327L7.78614 31.2394L9.096 29.728ZM6.824 15.712L4.99442 14.9041L4.99001 14.9141L4.98571 14.9242L6.824 15.712ZM9.864 11.776L8.66189 10.1776L8.65982 10.1791L9.864 11.776ZM28.264 9.984L28.8848 8.08279L28.8385 8.06767L28.7915 8.05482L28.264 9.984ZM20.456 16.352L18.879 15.1219L18.8756 15.1264L20.456 16.352ZM20.392 23.968L22.0364 22.8296L22.0364 22.8296L20.392 23.968ZM23.528 25.696L23.6231 23.6983L23.6078 23.6975L23.5925 23.697L23.528 25.696ZM30.12 27.328L28.1303 27.531L28.1368 27.5942L28.1472 27.6568L30.12 27.328ZM30.12 29.696L32.0928 30.0248L32.0942 30.0164L32.0955 30.0079L30.12 29.696ZM28.328 31.392L28.9376 33.2968L28.9547 33.2914L28.9718 33.2855L28.328 31.392ZM23.72 32.256L23.4875 30.2696L23.4771 30.2708L23.4667 30.2721L23.72 32.256ZM18.216 30.64C14.7119 30.64 12.1857 29.7592 10.4059 28.2166L7.78614 31.2394C10.4863 33.5795 14.0401 34.64 18.216 34.64V30.64ZM10.4211 28.23C8.71819 26.7235 7.768 24.5565 7.768 21.44H3.768C3.768 25.4489 5.03648 28.8071 7.77085 31.226L10.4211 28.23ZM7.768 21.44C7.768 19.4774 8.08552 17.8456 8.66229 16.4998L4.98571 14.9242C4.15448 16.8637 3.768 19.0506 3.768 21.44H7.768ZM8.65358 16.5199C9.25548 15.1567 10.0662 14.1284 11.0682 13.3729L8.65982 10.1791C7.05913 11.3862 5.84318 12.9819 4.99442 14.9041L8.65358 16.5199ZM11.0661 13.3744C13.2075 11.7639 16.1482 10.864 20.072 10.864V6.864C15.5478 6.864 11.6831 7.9054 8.66189 10.1776L11.0661 13.3744ZM20.072 10.864C22.618 10.864 25.1714 11.2118 27.7365 11.9132L28.7915 8.05482C25.8953 7.26288 22.9873 6.864 20.072 6.864V10.864ZM27.6432 11.8852C27.6818 11.8978 27.7073 11.9092 27.7226 11.917C27.7376 11.9247 27.744 11.9295 27.7448 11.9301C27.7454 11.9305 27.7435 11.9291 27.7409 11.9262C27.7383 11.9234 27.7382 11.9226 27.7404 11.9262C27.7473 11.9374 27.832 12.0844 27.832 12.512H31.832C31.832 11.5956 31.6553 10.6493 31.1396 9.81781C30.6023 8.95148 29.8035 8.38276 28.8848 8.08279L27.6432 11.8852ZM27.832 12.512C27.832 12.8722 27.8032 13.1306 27.7664 13.3063C27.7292 13.484 27.693 13.5335 27.7062 13.5125C27.7279 13.478 27.7967 13.3921 27.9222 13.3255C28.0423 13.2617 28.1231 13.264 28.104 13.264V17.264C29.3154 17.264 30.4127 16.7242 31.0938 15.6395C31.677 14.7108 31.832 13.574 31.832 12.512H27.832ZM28.104 13.264C28.1663 13.264 28.1781 13.2684 28.0847 13.2587C28.0106 13.251 27.9031 13.238 27.7567 13.2181C27.465 13.1786 27.0588 13.1174 26.532 13.0331L25.9 16.9829C26.4399 17.0693 26.8817 17.1361 27.2193 17.1819C27.5017 17.2202 27.8474 17.264 28.104 17.264V13.264ZM26.532 13.0331C25.4716 12.8635 24.5807 12.752 23.976 12.752V16.752C24.2246 16.752 24.8271 16.8112 25.9 16.9829L26.532 13.0331ZM23.976 12.752C21.9292 12.752 20.1389 13.5067 18.879 15.1219L22.033 17.5821C22.4371 17.0639 22.9935 16.752 23.976 16.752V12.752ZM18.8756 15.1264C17.7622 16.562 17.24 18.2651 17.24 20.128H21.24C21.24 19.0469 21.5284 18.2327 22.0364 17.5776L18.8756 15.1264ZM17.24 20.128C17.24 21.9533 17.7304 23.6371 18.7476 25.1064L22.0364 22.8296C21.5176 22.0802 21.24 21.204 21.24 20.128H17.24ZM18.7476 25.1064C19.8679 26.7246 21.4932 27.6314 23.4635 27.695L23.5925 23.697C22.9175 23.6753 22.4521 23.4301 22.0364 22.8296L18.7476 25.1064ZM23.4329 27.6937C24.3822 27.7389 26.0153 27.76 28.296 27.76V23.76C26.0114 23.76 24.4658 23.7384 23.6231 23.6983L23.4329 27.6937ZM28.296 27.76C28.4206 27.76 28.4641 27.7751 28.4517 27.7713C28.4327 27.7656 28.3624 27.7393 28.2802 27.6686C28.1963 27.5965 28.1479 27.5192 28.1261 27.4715C28.1078 27.4313 28.1211 27.4405 28.1303 27.531L32.1097 27.125C32.021 26.2559 31.6889 25.324 30.8878 24.6354C30.1029 23.9606 29.1461 23.76 28.296 23.76V27.76ZM28.1472 27.6568C28.1924 27.9278 28.216 28.2123 28.216 28.512H32.216C32.216 28.001 32.1756 27.4962 32.0928 26.9992L28.1472 27.6568ZM28.216 28.512C28.216 28.7847 28.1933 29.0749 28.1445 29.3841L32.0955 30.0079C32.1747 29.5064 32.216 29.0073 32.216 28.512H28.216ZM28.1472 29.3672C28.1508 29.3454 28.1607 29.3122 28.1791 29.2783C28.197 29.2455 28.2106 29.2345 28.2012 29.2434C28.1739 29.2693 28.0399 29.3775 27.6842 29.4985L28.9718 33.2855C30.3872 32.8043 31.7933 31.8218 32.0928 30.0248L28.1472 29.3672ZM27.7185 29.4872C26.8352 29.7698 25.4492 30.04 23.4875 30.2696L23.9525 34.2424C26.0014 34.0027 27.6874 33.6969 28.9376 33.2968L27.7185 29.4872ZM23.4667 30.2721C21.5283 30.5196 19.7796 30.64 18.216 30.64V34.64C19.9804 34.64 21.9011 34.5044 23.9733 34.2399L23.4667 30.2721Z" fill="#272727"/>
<path d="M42.376 32.64C39.7947 32.64 37.4587 32.3093 35.368 31.648C33.2773 30.9653 31.5813 30.0587 30.28 28.928C28.9787 27.7973 27.9867 26.5387 27.304 25.152C26.6213 23.744 26.28 22.2827 26.28 20.768C26.28 19.2533 26.6213 17.8027 27.304 16.416C28.008 15.008 29 13.7387 30.28 12.608C31.5813 11.4773 33.2773 10.5707 35.368 9.888C37.4587 9.20533 39.752 8.864 42.248 8.864C44.744 8.864 46.952 9.17333 48.872 9.792C50.792 10.4107 52.3387 11.2533 53.512 12.32C55.9013 14.496 57.096 17.0773 57.096 20.064C57.096 21.5787 56.7653 23.0613 56.104 24.512C55.464 25.9627 54.536 27.2853 53.32 28.48C52.1253 29.6533 50.5787 30.624 48.68 31.392C46.7813 32.1387 44.68 32.5547 42.376 32.64ZM48.712 20.224C48.712 19.2 48.3493 18.3147 47.624 17.568C46.8987 16.8 45.7893 16.416 44.296 16.416C42.824 16.416 41.6507 16.8107 40.776 17.6C39.9013 18.3893 39.464 19.3493 39.464 20.48C39.464 21.6107 39.9227 22.5173 40.84 23.2C41.7573 23.8827 42.856 24.224 44.136 24.224C45.4373 24.224 46.5253 23.808 47.4 22.976C48.2747 22.144 48.712 21.2267 48.712 20.224Z" fill="#C76BF5"/>
<path d="M42.376 32.64V34.64H42.413L42.45 34.6386L42.376 32.64ZM35.368 31.648L34.7472 33.5492L34.756 33.5521L34.7648 33.5549L35.368 31.648ZM30.28 28.928L28.9683 30.4377L30.28 28.928ZM27.304 25.152L25.5043 26.0246L25.5097 26.0354L27.304 25.152ZM27.304 16.416L25.5151 15.5216L25.5097 15.5326L27.304 16.416ZM30.28 12.608L28.9683 11.0983L28.9621 11.1036L28.9559 11.1091L30.28 12.608ZM35.368 9.888L34.7472 7.98679V7.98679L35.368 9.888ZM48.872 9.792L48.2586 11.6956V11.6956L48.872 9.792ZM53.512 12.32L54.8587 10.8413L54.8573 10.8401L53.512 12.32ZM56.104 24.512L54.2842 23.6824L54.2791 23.6935L54.2742 23.7047L56.104 24.512ZM53.32 28.48L54.7214 29.9069L54.7216 29.9067L53.32 28.48ZM48.68 31.392L49.412 33.2532L49.421 33.2497L49.43 33.2461L48.68 31.392ZM47.624 17.568L46.17 18.9412L46.1796 18.9515L46.1894 18.9616L47.624 17.568ZM40.776 17.6L39.4361 16.1152L40.776 17.6ZM40.84 23.2L39.646 24.8045L40.84 23.2ZM47.4 22.976L48.7784 24.4251V24.4251L47.4 22.976ZM42.376 30.64C39.964 30.64 37.8357 30.3309 35.9712 29.7411L34.7648 33.5549C37.0816 34.2877 39.6253 34.64 42.376 34.64V30.64ZM35.9888 29.7468C34.085 29.1251 32.6439 28.3324 31.5917 27.4183L28.9683 30.4377C30.5188 31.7849 32.4697 32.8055 34.7472 33.5492L35.9888 29.7468ZM31.5917 27.4183C30.4682 26.442 29.6506 25.3904 29.0983 24.2686L25.5097 26.0354C26.3228 27.687 27.4892 29.1526 28.9683 30.4377L31.5917 27.4183ZM29.1036 24.2795C28.5483 23.1342 28.28 21.9703 28.28 20.768H24.28C24.28 22.5951 24.6943 24.3538 25.5044 26.0245L29.1036 24.2795ZM28.28 20.768C28.28 19.5661 28.5481 18.417 29.0983 17.2994L25.5097 15.5326C24.6946 17.1883 24.28 18.9406 24.28 20.768H28.28ZM29.0929 17.3104C29.6727 16.1507 30.4999 15.0823 31.6041 14.1069L28.9559 11.1091C27.5001 12.395 26.3433 13.8653 25.5151 15.5216L29.0929 17.3104ZM31.5917 14.1177C32.6439 13.2036 34.085 12.4109 35.9888 11.7892L34.7472 7.98679C32.4697 8.73047 30.5188 9.75109 28.9683 11.0983L31.5917 14.1177ZM35.9888 11.7892C37.854 11.1802 39.9348 10.864 42.248 10.864V6.864C39.5692 6.864 37.0633 7.23051 34.7472 7.98679L35.9888 11.7892ZM42.248 10.864C44.5831 10.864 46.5774 11.1539 48.2586 11.6956L49.4854 7.88838C47.3266 7.19279 44.9049 6.864 42.248 6.864V10.864ZM48.2586 11.6956C49.9785 12.2498 51.2535 12.9697 52.1667 13.7999L54.8573 10.8401C53.4239 9.53696 51.6055 8.57153 49.4854 7.88838L48.2586 11.6956ZM52.1653 13.7987C54.1768 15.6305 55.096 17.69 55.096 20.064H59.096C59.096 16.4647 57.6259 13.3615 54.8587 10.8413L52.1653 13.7987ZM55.096 20.064C55.096 21.2774 54.8332 22.4782 54.2842 23.6824L57.9238 25.3416C58.6975 23.6445 59.096 21.8799 59.096 20.064H55.096ZM54.2742 23.7047C53.7439 24.9067 52.9674 26.0227 51.9184 27.0533L54.7216 29.9067C56.1046 28.548 57.1841 27.0186 57.9338 25.3193L54.2742 23.7047ZM51.9186 27.0531C50.9477 28.0067 49.6384 28.8469 47.93 29.5379L49.43 33.2461C51.5189 32.4011 53.303 31.3 54.7214 29.9069L51.9186 27.0531ZM47.948 29.5308C46.2848 30.1848 44.4095 30.5633 42.302 30.6414L42.45 34.6386C44.9505 34.546 47.2779 34.0925 49.412 33.2532L47.948 29.5308ZM50.712 20.224C50.712 18.67 50.1398 17.2875 49.0586 16.1744L46.1894 18.9616C46.5589 19.3419 46.712 19.73 46.712 20.224H50.712ZM49.078 16.1948C47.8406 14.8845 46.1074 14.416 44.296 14.416V18.416C45.4713 18.416 45.9568 18.7155 46.17 18.9412L49.078 16.1948ZM44.296 14.416C42.4574 14.416 40.7636 14.9172 39.4361 16.1152L42.1159 19.0848C42.5378 18.7041 43.1906 18.416 44.296 18.416V14.416ZM39.4361 16.1152C38.1612 17.2657 37.464 18.7569 37.464 20.48H41.464C41.464 19.9418 41.6415 19.513 42.1159 19.0848L39.4361 16.1152ZM37.464 20.48C37.464 22.2512 38.2283 23.7495 39.646 24.8045L42.034 21.5955C41.617 21.2852 41.464 20.9701 41.464 20.48H37.464ZM39.646 24.8045C40.9493 25.7744 42.4797 26.224 44.136 26.224V22.224C43.2323 22.224 42.5654 21.991 42.034 21.5955L39.646 24.8045ZM44.136 26.224C45.9066 26.224 47.5013 25.6399 48.7784 24.4251L46.0216 21.5269C45.5493 21.9761 44.9681 22.224 44.136 22.224V26.224ZM48.7784 24.4251C49.9627 23.2986 50.712 21.8842 50.712 20.224H46.712C46.712 20.5691 46.5866 20.9894 46.0216 21.5269L48.7784 24.4251Z" fill="#272727"/>
<path d="M66.264 17.312L66.232 23.712C66.232 24.6507 66.3707 25.3547 66.648 25.824C66.9467 26.272 67.5547 26.496 68.472 26.496H76.568C77.5493 26.5173 78.04 27.264 78.04 28.736C78.04 29.8667 77.9013 30.688 77.624 31.2C77.3467 31.712 76.7813 31.9787 75.928 32C72.92 32.0853 69.944 32.128 67 32.128C64.056 32.128 60.3013 32.1067 55.736 32.064C54.968 32.064 54.3387 31.8827 53.848 31.52C53.3787 31.136 53.112 30.6133 53.048 29.952C52.8773 28.096 52.792 25.1733 52.792 21.184C52.792 17.1733 52.8347 14.4747 52.92 13.088C53.0267 11.68 53.2293 10.752 53.528 10.304C53.8267 9.83467 54.4133 9.6 55.288 9.6H63.864C64.76 9.6 65.3467 9.83467 65.624 10.304C65.9227 10.7733 66.104 11.5307 66.168 12.576C66.232 13.6213 66.264 15.2 66.264 17.312Z" fill="#F5C359"/>
<path d="M66.264 17.312L68.264 17.322V17.312H66.264ZM66.232 23.712L64.232 23.702V23.712H66.232ZM66.648 25.824L64.9261 26.8415L64.9538 26.8882L64.9839 26.9334L66.648 25.824ZM76.568 26.496L76.6115 24.4965L76.5897 24.496H76.568V26.496ZM77.624 31.2L75.8654 30.2474L75.8654 30.2474L77.624 31.2ZM75.928 32L75.878 30.0006L75.8713 30.0008L75.928 32ZM55.736 32.064L55.7547 30.0641L55.7453 30.064H55.736V32.064ZM53.848 31.52L52.5815 33.0679L52.6196 33.0991L52.6592 33.1284L53.848 31.52ZM53.048 29.952L51.0564 30.1351L51.0573 30.1446L53.048 29.952ZM52.92 13.088L50.9257 12.9369L50.9246 12.951L50.9238 12.9652L52.92 13.088ZM53.528 10.304L55.1921 11.4134L55.2039 11.3957L55.2153 11.3777L53.528 10.304ZM65.624 10.304L63.9021 11.3215L63.9189 11.3499L63.9367 11.3777L65.624 10.304ZM66.168 12.576L68.1643 12.4538V12.4538L66.168 12.576ZM64.264 17.302L64.232 23.702L68.232 23.722L68.264 17.322L64.264 17.302ZM64.232 23.712C64.232 24.7822 64.3785 25.9147 64.9261 26.8415L68.3699 24.8065C68.3765 24.8178 68.3369 24.7533 68.2983 24.5575C68.2603 24.3647 68.232 24.0888 68.232 23.712H64.232ZM64.9839 26.9334C65.855 28.24 67.3573 28.496 68.472 28.496V24.496C68.3222 24.496 68.211 24.4867 68.1326 24.4752C68.094 24.4696 68.0658 24.4637 68.0467 24.459C68.0276 24.4543 68.0191 24.4512 68.0194 24.4513C68.02 24.4515 68.0607 24.4666 68.1209 24.5112C68.1838 24.5578 68.2528 24.6257 68.3121 24.7146L64.9839 26.9334ZM68.472 28.496H76.568V24.496H68.472V28.496ZM76.5245 28.4955C76.5182 28.4954 76.4209 28.4911 76.2869 28.4212C76.1458 28.3476 76.0504 28.2462 76.0006 28.1704C75.9589 28.107 75.9727 28.0983 75.9952 28.1999C76.0175 28.3009 76.04 28.4731 76.04 28.736H80.04C80.04 27.8376 79.901 26.8222 79.3434 25.9736C78.6968 24.9897 77.6839 24.5198 76.6115 24.4965L76.5245 28.4955ZM76.04 28.736C76.04 29.2263 76.0094 29.5974 75.9639 29.867C75.9168 30.1462 75.8648 30.2485 75.8654 30.2474L79.3826 32.1526C79.9074 31.1837 80.04 29.9413 80.04 28.736H76.04ZM75.8654 30.2474C75.899 30.1854 75.9464 30.123 76.0047 30.0691C76.0618 30.0163 76.1122 29.9877 76.1388 29.9751C76.1633 29.9636 76.1603 29.969 76.1161 29.978C76.0716 29.987 75.9946 29.9977 75.878 30.0006L75.978 33.9994C77.1808 33.9693 78.6197 33.561 79.3826 32.1526L75.8654 30.2474ZM75.8713 30.0008C72.8818 30.0856 69.9247 30.128 67 30.128V34.128C69.9633 34.128 72.9582 34.0851 75.9847 33.9992L75.8713 30.0008ZM67 30.128C64.0646 30.128 60.3168 30.1067 55.7547 30.0641L55.7173 34.0639C60.2859 34.1066 64.0474 34.128 67 34.128V30.128ZM55.736 30.064C55.284 30.064 55.103 29.9606 55.0368 29.9116L52.6592 33.1284C53.5743 33.8047 54.652 34.064 55.736 34.064V30.064ZM55.1145 29.9721C55.0865 29.9492 55.081 29.9378 55.0775 29.9311C55.0723 29.9209 55.0497 29.8731 55.0387 29.7594L51.0573 30.1446C51.1672 31.2803 51.6585 32.3127 52.5815 33.0679L55.1145 29.9721ZM55.0396 29.7689C54.8779 28.01 54.792 25.1647 54.792 21.184H50.792C50.792 25.1819 50.8768 28.182 51.0564 30.1351L55.0396 29.7689ZM54.792 21.184C54.792 17.1648 54.8353 14.5265 54.9162 13.2108L50.9238 12.9652C50.8341 14.4228 50.792 17.1818 50.792 21.184H54.792ZM54.9143 13.2391C54.9636 12.5878 55.0315 12.1037 55.1059 11.7627C55.1884 11.3852 55.2487 11.3285 55.1921 11.4134L51.8639 9.1946C51.5087 9.72747 51.3183 10.3588 51.1981 10.9093C51.0699 11.4963 50.983 12.1802 50.9257 12.9369L54.9143 13.2391ZM55.2153 11.3777C55.1688 11.4509 55.111 11.5136 55.0508 11.5614C54.9925 11.6077 54.9479 11.6277 54.9348 11.633C54.9234 11.6375 54.9421 11.6285 55.0031 11.6187C55.0641 11.6089 55.157 11.6 55.288 11.6V7.6C54.1392 7.6 52.6825 7.90737 51.8407 9.23025L55.2153 11.3777ZM55.288 11.6H63.864V7.6H55.288V11.6ZM63.864 11.6C64.0027 11.6 64.101 11.6092 64.1653 11.6194C64.23 11.6296 64.248 11.6389 64.2332 11.633C64.2166 11.6263 64.1631 11.6022 64.0947 11.5465C64.0237 11.4886 63.9557 11.412 63.9021 11.3215L67.3459 9.28654C66.5198 7.88861 64.9937 7.6 63.864 7.6V11.6ZM63.9367 11.3777C63.9299 11.3671 63.9809 11.4472 64.039 11.6897C64.0952 11.9247 64.1446 12.2546 64.1717 12.6982L68.1643 12.4538C68.0949 11.3201 67.8907 10.1407 67.3113 9.23025L63.9367 11.3777ZM64.1717 12.6982C64.2319 13.68 64.264 15.2086 64.264 17.312H68.264C68.264 15.1914 68.2322 13.5626 68.1643 12.4538L64.1717 12.6982Z" fill="#272727"/>
<path d="M87.376 32.64C84.7947 32.64 82.4587 32.3093 80.368 31.648C78.2773 30.9653 76.5813 30.0587 75.28 28.928C73.9787 27.7973 72.9867 26.5387 72.304 25.152C71.6213 23.744 71.28 22.2827 71.28 20.768C71.28 19.2533 71.6213 17.8027 72.304 16.416C73.008 15.008 74 13.7387 75.28 12.608C76.5813 11.4773 78.2773 10.5707 80.368 9.888C82.4587 9.20533 84.752 8.864 87.248 8.864C89.744 8.864 91.952 9.17333 93.872 9.792C95.792 10.4107 97.3387 11.2533 98.512 12.32C100.901 14.496 102.096 17.0773 102.096 20.064C102.096 21.5787 101.765 23.0613 101.104 24.512C100.464 25.9627 99.536 27.2853 98.32 28.48C97.1253 29.6533 95.5787 30.624 93.68 31.392C91.7813 32.1387 89.68 32.5547 87.376 32.64ZM93.712 20.224C93.712 19.2 93.3493 18.3147 92.624 17.568C91.8987 16.8 90.7893 16.416 89.296 16.416C87.824 16.416 86.6507 16.8107 85.776 17.6C84.9013 18.3893 84.464 19.3493 84.464 20.48C84.464 21.6107 84.9227 22.5173 85.84 23.2C86.7573 23.8827 87.856 24.224 89.136 24.224C90.4373 24.224 91.5253 23.808 92.4 22.976C93.2747 22.144 93.712 21.2267 93.712 20.224Z" fill="#4EB983"/>
<path d="M87.376 32.64V34.64H87.413L87.45 34.6386L87.376 32.64ZM80.368 31.648L79.7472 33.5492L79.756 33.5521L79.7648 33.5549L80.368 31.648ZM75.28 28.928L73.9683 30.4377L75.28 28.928ZM72.304 25.152L70.5043 26.0246L70.5097 26.0354L72.304 25.152ZM72.304 16.416L70.5151 15.5216L70.5097 15.5326L72.304 16.416ZM75.28 12.608L73.9683 11.0983L73.9621 11.1036L73.9559 11.1091L75.28 12.608ZM80.368 9.888L79.7472 7.98679V7.98679L80.368 9.888ZM93.872 9.792L93.2586 11.6956V11.6956L93.872 9.792ZM98.512 12.32L99.8587 10.8413L99.8573 10.8401L98.512 12.32ZM101.104 24.512L99.2842 23.6824L99.2791 23.6935L99.2742 23.7047L101.104 24.512ZM98.32 28.48L99.7214 29.9069L99.7216 29.9067L98.32 28.48ZM93.68 31.392L94.412 33.2532L94.421 33.2497L94.43 33.2461L93.68 31.392ZM92.624 17.568L91.17 18.9412L91.1796 18.9515L91.1894 18.9616L92.624 17.568ZM85.776 17.6L84.4361 16.1152L85.776 17.6ZM85.84 23.2L84.646 24.8045L85.84 23.2ZM92.4 22.976L93.7784 24.4251V24.4251L92.4 22.976ZM87.376 30.64C84.964 30.64 82.8357 30.3309 80.9712 29.7411L79.7648 33.5549C82.0816 34.2877 84.6253 34.64 87.376 34.64V30.64ZM80.9888 29.7468C79.085 29.1251 77.6439 28.3324 76.5917 27.4183L73.9683 30.4377C75.5188 31.7849 77.4697 32.8055 79.7472 33.5492L80.9888 29.7468ZM76.5917 27.4183C75.4682 26.442 74.6506 25.3904 74.0983 24.2686L70.5097 26.0354C71.3228 27.687 72.4892 29.1526 73.9683 30.4377L76.5917 27.4183ZM74.1036 24.2795C73.5483 23.1342 73.28 21.9703 73.28 20.768H69.28C69.28 22.5951 69.6943 24.3538 70.5044 26.0245L74.1036 24.2795ZM73.28 20.768C73.28 19.5661 73.5481 18.417 74.0983 17.2994L70.5097 15.5326C69.6946 17.1883 69.28 18.9406 69.28 20.768H73.28ZM74.0929 17.3104C74.6727 16.1507 75.4999 15.0823 76.6041 14.1069L73.9559 11.1091C72.5001 12.395 71.3433 13.8653 70.5151 15.5216L74.0929 17.3104ZM76.5917 14.1177C77.6439 13.2036 79.085 12.4109 80.9888 11.7892L79.7472 7.98679C77.4697 8.73047 75.5188 9.75109 73.9683 11.0983L76.5917 14.1177ZM80.9888 11.7892C82.854 11.1802 84.9348 10.864 87.248 10.864V6.864C84.5692 6.864 82.0633 7.23051 79.7472 7.98679L80.9888 11.7892ZM87.248 10.864C89.5831 10.864 91.5774 11.1539 93.2586 11.6956L94.4854 7.88838C92.3266 7.19279 89.9049 6.864 87.248 6.864V10.864ZM93.2586 11.6956C94.9785 12.2498 96.2535 12.9697 97.1667 13.7999L99.8573 10.8401C98.4239 9.53696 96.6055 8.57153 94.4854 7.88838L93.2586 11.6956ZM97.1653 13.7987C99.1768 15.6305 100.096 17.69 100.096 20.064H104.096C104.096 16.4647 102.626 13.3615 99.8587 10.8413L97.1653 13.7987ZM100.096 20.064C100.096 21.2774 99.8332 22.4782 99.2842 23.6824L102.924 25.3416C103.698 23.6445 104.096 21.8799 104.096 20.064H100.096ZM99.2742 23.7047C98.7439 24.9067 97.9674 26.0227 96.9184 27.0533L99.7216 29.9067C101.105 28.548 102.184 27.0186 102.934 25.3193L99.2742 23.7047ZM96.9186 27.0531C95.9477 28.0067 94.6384 28.8469 92.93 29.5379L94.43 33.2461C96.5189 32.4011 98.303 31.3 99.7214 29.9069L96.9186 27.0531ZM92.948 29.5308C91.2848 30.1848 89.4095 30.5633 87.302 30.6414L87.45 34.6386C89.9505 34.546 92.2779 34.0925 94.412 33.2532L92.948 29.5308ZM95.712 20.224C95.712 18.67 95.1398 17.2875 94.0586 16.1744L91.1894 18.9616C91.5589 19.3419 91.712 19.73 91.712 20.224H95.712ZM94.078 16.1948C92.8406 14.8845 91.1074 14.416 89.296 14.416V18.416C90.4713 18.416 90.9568 18.7155 91.17 18.9412L94.078 16.1948ZM89.296 14.416C87.4574 14.416 85.7636 14.9172 84.4361 16.1152L87.1159 19.0848C87.5378 18.7041 88.1906 18.416 89.296 18.416V14.416ZM84.4361 16.1152C83.1612 17.2657 82.464 18.7569 82.464 20.48H86.464C86.464 19.9418 86.6415 19.513 87.1159 19.0848L84.4361 16.1152ZM82.464 20.48C82.464 22.2512 83.2283 23.7495 84.646 24.8045L87.034 21.5955C86.617 21.2852 86.464 20.9701 86.464 20.48H82.464ZM84.646 24.8045C85.9493 25.7744 87.4797 26.224 89.136 26.224V22.224C88.2323 22.224 87.5654 21.991 87.034 21.5955L84.646 24.8045ZM89.136 26.224C90.9066 26.224 92.5013 25.6399 93.7784 24.4251L91.0216 21.5269C90.5493 21.9761 89.9681 22.224 89.136 22.224V26.224ZM93.7784 24.4251C94.9627 23.2986 95.712 21.8842 95.712 20.224H91.712C91.712 20.5691 91.5866 20.9894 91.0216 21.5269L93.7784 24.4251Z" fill="#272727"/>
<path d="M111.104 16.288L111.168 22.208C111.168 22.6133 111.392 22.816 111.84 22.816C113.163 22.816 114.197 22.4533 114.944 21.728C115.712 20.9813 116.096 20.1067 116.096 19.104C116.096 18.1013 115.733 17.2373 115.008 16.512C114.304 15.7867 113.259 15.424 111.872 15.424C111.36 15.424 111.104 15.712 111.104 16.288ZM119.488 25.856C119.893 26.2827 121.333 27.8933 123.808 30.688C123.957 30.88 124.032 31.0507 124.032 31.2C124.032 31.7547 123.787 32.032 123.296 32.032C122.165 32.0533 121.024 32.064 119.872 32.064C118.741 32.064 117.611 32.0533 116.48 32.032C115.861 32.032 115.296 31.7867 114.784 31.296L112.032 27.136C111.925 27.008 111.797 26.9227 111.648 26.88C111.307 26.752 111.136 26.8907 111.136 27.296V30.56C111.136 31.4773 110.528 31.968 109.312 32.032C108.117 32.096 106.805 32.128 105.376 32.128C103.947 32.128 102.219 32.0747 100.192 31.968C99.5733 31.9253 99.072 31.712 98.688 31.328C98.3253 30.944 98.112 30.5067 98.048 30.016C97.8773 28.1387 97.792 25.1947 97.792 21.184C97.792 17.152 97.856 14.2187 97.984 12.384C98.112 10.5493 99.04 9.62133 100.768 9.6C102.389 9.57867 104.597 9.568 107.392 9.568C110.187 9.568 112.501 9.58933 114.336 9.632C116.981 9.67467 119.147 10.656 120.832 12.576C122.517 14.496 123.36 16.6613 123.36 19.072C123.36 20.48 123.029 21.7813 122.368 22.976C121.728 24.1707 120.768 25.1307 119.488 25.856Z" fill="#F5C359"/>
<path d="M111.104 16.288H109.104V16.2988L109.104 16.3096L111.104 16.288ZM111.168 22.208H113.168V22.1972L113.168 22.1864L111.168 22.208ZM114.944 21.728L116.338 23.1626L116.338 23.162L114.944 21.728ZM115.008 16.512L113.573 17.905L113.583 17.9157L113.594 17.9262L115.008 16.512ZM119.488 25.856L118.502 24.116L116.275 25.3778L118.038 27.2335L119.488 25.856ZM123.808 30.688L125.387 29.4601L125.348 29.4098L125.305 29.3621L123.808 30.688ZM123.296 32.032V30.032H123.277L123.258 30.0324L123.296 32.032ZM116.48 32.032L116.518 30.0324L116.499 30.032H116.48V32.032ZM114.784 31.296L113.116 32.3995L113.239 32.5856L113.4 32.74L114.784 31.296ZM112.032 27.136L113.7 26.0325L113.639 25.9404L113.568 25.8556L112.032 27.136ZM111.648 26.88L110.946 28.7527L111.021 28.7809L111.099 28.803L111.648 26.88ZM109.312 32.032L109.207 30.0348L109.205 30.0349L109.312 32.032ZM100.192 31.968L100.054 33.9633L100.071 33.9644L100.087 33.9652L100.192 31.968ZM98.688 31.328L97.234 32.7012L97.2536 32.722L97.2738 32.7422L98.688 31.328ZM98.048 30.016L96.0562 30.1971L96.0597 30.236L96.0648 30.2747L98.048 30.016ZM100.768 9.6L100.793 11.5998L100.794 11.5998L100.768 9.6ZM114.336 9.632L114.29 11.6315L114.297 11.6316L114.304 11.6317L114.336 9.632ZM120.832 12.576L122.335 11.2566V11.2566L120.832 12.576ZM122.368 22.976L120.618 22.0074L120.612 22.0194L120.605 22.0316L122.368 22.976ZM109.104 16.3096L109.168 22.2296L113.168 22.1864L113.104 16.2664L109.104 16.3096ZM109.168 22.208C109.168 22.7735 109.333 23.5493 109.994 24.1471C110.617 24.7105 111.354 24.816 111.84 24.816V20.816C111.878 20.816 112.279 20.8202 112.678 21.1809C113.115 21.5761 113.168 22.0479 113.168 22.208H109.168ZM111.84 24.816C113.536 24.816 115.124 24.3416 116.338 23.1626L113.55 20.2934C113.271 20.5651 112.79 20.816 111.84 20.816V24.816ZM116.338 23.162C117.464 22.0674 118.096 20.6866 118.096 19.104H114.096C114.096 19.5268 113.96 19.8953 113.55 20.294L116.338 23.162ZM118.096 19.104C118.096 17.5574 117.513 16.1885 116.422 15.0978L113.594 17.9262C113.954 18.2862 114.096 18.6453 114.096 19.104H118.096ZM116.443 15.119C115.24 13.8789 113.593 13.424 111.872 13.424V17.424C112.924 17.424 113.368 17.6944 113.573 17.905L116.443 15.119ZM111.872 13.424C111.243 13.424 110.423 13.6118 109.801 14.3113C109.219 14.9658 109.104 15.7459 109.104 16.288H113.104C113.104 16.2893 113.104 16.3067 113.1 16.3374C113.096 16.3682 113.088 16.4166 113.07 16.4782C113.032 16.6043 112.952 16.7872 112.791 16.9687C112.425 17.3802 111.989 17.424 111.872 17.424V13.424ZM118.038 27.2335C118.412 27.6276 119.821 29.202 122.311 32.0139L125.305 29.3621C122.846 26.5847 121.374 24.9378 120.938 24.4785L118.038 27.2335ZM122.229 31.9159C122.229 31.9149 122.219 31.9026 122.204 31.879C122.19 31.8555 122.168 31.8163 122.144 31.7616C122.097 31.6548 122.032 31.4605 122.032 31.2H126.032C126.032 30.4028 125.651 29.7994 125.387 29.4601L122.229 31.9159ZM122.032 31.2C122.032 31.1977 122.032 31.1209 122.068 30.9983C122.106 30.8692 122.187 30.6833 122.35 30.4989C122.72 30.0803 123.165 30.032 123.296 30.032V34.032C123.918 34.032 124.73 33.8451 125.346 33.1491C125.92 32.5 126.032 31.7294 126.032 31.2H122.032ZM123.258 30.0324C122.14 30.0534 121.012 30.064 119.872 30.064V34.064C121.036 34.064 122.19 34.0532 123.334 34.0316L123.258 30.0324ZM119.872 30.064C118.754 30.064 117.636 30.0535 116.518 30.0324L116.442 34.0316C117.586 34.0532 118.729 34.064 119.872 34.064V30.064ZM116.48 30.032C116.453 30.032 116.366 30.0422 116.168 29.852L113.4 32.74C114.226 33.5312 115.27 34.032 116.48 34.032V30.032ZM116.452 30.1925L113.7 26.0325L110.364 28.2395L113.116 32.3995L116.452 30.1925ZM113.568 25.8556C113.224 25.4428 112.761 25.1181 112.197 24.957L111.099 28.803C110.833 28.7273 110.626 28.5732 110.496 28.4164L113.568 25.8556ZM112.35 25.0073C111.969 24.8643 110.933 24.5799 110.003 25.3358C109.177 26.0068 109.136 26.9648 109.136 27.296H113.136C113.136 27.3195 113.135 27.4523 113.076 27.6407C113.015 27.8374 112.866 28.1637 112.525 28.4402C111.765 29.0575 110.986 28.7677 110.946 28.7527L112.35 25.0073ZM109.136 27.296V30.56H113.136V27.296H109.136ZM109.136 30.56C109.136 30.5692 109.135 30.4936 109.186 30.3751C109.241 30.2476 109.328 30.1366 109.424 30.0596C109.51 29.9899 109.563 29.9799 109.528 29.9905C109.491 30.0018 109.391 30.0251 109.207 30.0348L109.417 34.0292C110.227 33.9866 111.167 33.7928 111.936 33.1724C112.795 32.4792 113.136 31.5057 113.136 30.56H109.136ZM109.205 30.0349C108.052 30.0966 106.776 30.128 105.376 30.128V34.128C106.834 34.128 108.183 34.0954 109.419 34.0291L109.205 30.0349ZM105.376 30.128C103.993 30.128 102.302 30.0763 100.297 29.9708L100.087 33.9652C102.135 34.073 103.9 34.128 105.376 34.128V30.128ZM100.33 29.9727C100.212 29.9646 100.155 29.944 100.135 29.9357C100.119 29.929 100.112 29.924 100.102 29.9138L97.2738 32.7422C98.0475 33.5159 99.0268 33.8924 100.054 33.9633L100.33 29.9727ZM100.142 29.9548C100.048 29.8553 100.037 29.8011 100.031 29.7573L96.0648 30.2747C96.1871 31.2123 96.6026 32.0327 97.234 32.7012L100.142 29.9548ZM100.04 29.8349C99.8778 28.0534 99.792 25.1857 99.792 21.184H95.792C95.792 25.2036 95.8768 28.2239 96.0562 30.1971L100.04 29.8349ZM99.792 21.184C99.792 17.1572 99.8563 14.2834 99.9792 12.5232L95.9888 12.2448C95.8557 14.154 95.792 17.1468 95.792 21.184H99.792ZM99.9792 12.5232C100.023 11.895 100.182 11.7341 100.19 11.7262C100.198 11.7188 100.221 11.6959 100.295 11.6693C100.378 11.6397 100.534 11.603 100.793 11.5998L100.743 7.60015C99.5284 7.61515 98.3002 7.95937 97.3618 8.89778C96.4416 9.81794 96.073 11.0383 95.9888 12.2448L99.9792 12.5232ZM100.794 11.5998C102.403 11.5787 104.601 11.568 107.392 11.568V7.568C104.594 7.568 102.376 7.57867 100.742 7.60017L100.794 11.5998ZM107.392 11.568C110.178 11.568 112.476 11.5893 114.29 11.6315L114.382 7.63254C112.527 7.58938 110.195 7.568 107.392 7.568V11.568ZM114.304 11.6317C116.408 11.6657 118.031 12.4164 119.329 13.8954L122.335 11.2566C120.263 8.89563 117.555 7.68366 114.368 7.63226L114.304 11.6317ZM119.329 13.8954C120.715 15.4742 121.36 17.1775 121.36 19.072H125.36C125.36 16.1451 124.32 13.5178 122.335 11.2566L119.329 13.8954ZM121.36 19.072C121.36 20.1521 121.11 21.1186 120.618 22.0074L124.118 23.9446C124.948 22.444 125.36 20.8079 125.36 19.072H121.36ZM120.605 22.0316C120.159 22.8645 119.482 23.5605 118.502 24.116L120.474 27.596C122.054 26.7009 123.297 25.4769 124.131 23.9204L120.605 22.0316Z" fill="#272727"/>
<path d="M144.616 9.6H148.04C148.765 9.6 149.267 9.71733 149.544 9.952C149.843 10.1867 150.003 10.6667 150.024 11.392C150.152 14.6347 150.216 18.1227 150.216 21.856C150.216 25.5893 150.141 28.32 149.992 30.048C149.949 30.5387 149.757 30.9867 149.416 31.392C149.096 31.7973 148.669 32 148.136 32H142.792C142.045 32 141.224 31.7333 140.328 31.2C135.379 28.2773 132.264 26.496 130.984 25.856C130.728 25.7493 130.515 25.792 130.344 25.984C130.195 26.1547 130.12 26.4853 130.12 26.976V30.528C130.12 30.9333 129.971 31.2533 129.672 31.488C129.224 31.8507 128.072 32.032 126.216 32.032C125.704 32.032 125.203 32.0213 124.712 32C124.221 31.9573 123.816 31.7333 123.496 31.328C123.197 30.9227 123.037 30.4853 123.016 30.016C122.952 27.456 122.92 24.2453 122.92 20.384C122.92 16.5013 122.931 13.9733 122.952 12.8C122.973 11.6267 123.112 10.8053 123.368 10.336C123.624 9.84533 124.115 9.6 124.84 9.6H128.36C129.085 9.6 129.832 9.80267 130.6 10.208C137.213 13.6427 141.075 15.6373 142.184 16.192C142.547 16.3627 142.835 16.384 143.048 16.256C143.261 16.128 143.368 15.8933 143.368 15.552V11.072C143.368 10.6453 143.475 10.2933 143.688 10.016C143.923 9.73867 144.232 9.6 144.616 9.6Z" fill="#F5815C"/>
<path d="M149.544 9.952L148.252 11.4788L148.28 11.5022L148.308 11.5246L149.544 9.952ZM150.024 11.392L148.025 11.4508L148.025 11.4608L148.026 11.4709L150.024 11.392ZM149.992 30.048L151.984 30.2213L151.985 30.2202L149.992 30.048ZM149.416 31.392L147.886 30.1037L147.866 30.1279L147.846 30.1527L149.416 31.392ZM140.328 31.2L141.351 29.4814L141.345 29.4779L140.328 31.2ZM130.984 25.856L131.878 24.0671L131.817 24.0363L131.753 24.0098L130.984 25.856ZM130.344 25.984L128.849 24.6553L128.844 24.6611L128.839 24.667L130.344 25.984ZM129.672 31.488L128.436 29.9154L128.425 29.9244L128.414 29.9335L129.672 31.488ZM124.712 32L124.539 33.9925L124.582 33.9962L124.625 33.9981L124.712 32ZM123.496 31.328L121.886 32.5144L121.906 32.5412L121.926 32.5673L123.496 31.328ZM123.016 30.016L121.017 30.066L121.017 30.0864L121.018 30.1068L123.016 30.016ZM122.952 12.8L124.952 12.8364L122.952 12.8ZM123.368 10.336L125.124 11.2937L125.133 11.2775L125.141 11.2611L123.368 10.336ZM130.6 10.208L129.666 11.9768L129.678 11.9829L130.6 10.208ZM142.184 16.192L141.29 17.9809L141.311 17.9915L141.332 18.0016L142.184 16.192ZM143.048 16.256L142.019 14.541V14.541L143.048 16.256ZM143.688 10.016L142.161 8.72412L142.131 8.75967L142.103 8.79658L143.688 10.016ZM144.616 11.6H148.04V7.6H144.616V11.6ZM148.04 11.6C148.169 11.6 148.271 11.6052 148.352 11.6129C148.432 11.6206 148.481 11.63 148.504 11.6354C148.528 11.6409 148.512 11.6395 148.47 11.6204C148.427 11.6011 148.347 11.5587 148.252 11.4788L150.836 8.42523C149.979 7.69992 148.838 7.6 148.04 7.6V11.6ZM148.308 11.5246C148.063 11.3319 147.994 11.1311 147.991 11.1205C147.988 11.1119 147.995 11.1324 148.004 11.1915C148.013 11.2499 148.021 11.3348 148.025 11.4508L152.023 11.3332C151.999 10.5076 151.828 9.20296 150.78 8.37936L148.308 11.5246ZM148.026 11.4709C148.152 14.6837 148.216 18.1452 148.216 21.856H152.216C152.216 18.1002 152.152 14.5856 152.022 11.3131L148.026 11.4709ZM148.216 21.856C148.216 25.5816 148.141 28.2393 147.999 29.8758L151.985 30.2202C152.142 28.4007 152.216 25.597 152.216 21.856H148.216ZM148 29.8747C147.995 29.9233 147.983 29.9883 147.886 30.1037L150.946 32.6803C151.531 31.985 151.903 31.154 151.984 30.2213L148 29.8747ZM147.846 30.1527C147.859 30.137 147.908 30.084 147.998 30.0414C148.085 29.9999 148.144 30 148.136 30V34C149.258 34 150.272 33.535 150.986 32.6313L147.846 30.1527ZM148.136 30H142.792V34H148.136V30ZM142.792 30C142.521 30 142.055 29.9002 141.351 29.4814L139.305 32.9186C140.393 33.5665 141.57 34 142.792 34V30ZM141.345 29.4779C136.418 26.5686 133.235 24.7455 131.878 24.0671L130.09 27.6449C131.293 28.2465 134.339 29.9861 139.311 32.9221L141.345 29.4779ZM131.753 24.0098C131.359 23.8454 130.831 23.7286 130.24 23.8468C129.633 23.9682 129.169 24.295 128.849 24.6553L131.839 27.3127C131.689 27.481 131.418 27.6905 131.024 27.7692C130.646 27.8447 130.353 27.7599 130.215 27.7022L131.753 24.0098ZM128.839 24.667C128.463 25.0965 128.302 25.5776 128.225 25.9195C128.144 26.2778 128.12 26.6421 128.12 26.976H132.12C132.12 26.8192 132.133 26.7728 132.127 26.8005C132.123 26.8181 132.109 26.8757 132.072 26.9579C132.035 27.0403 131.967 27.1659 131.849 27.301L128.839 24.667ZM128.12 26.976V30.528H132.12V26.976H128.12ZM128.12 30.528C128.12 30.4816 128.13 30.3675 128.196 30.2262C128.263 30.0809 128.358 29.9768 128.436 29.9154L130.908 33.0606C131.725 32.4184 132.12 31.4995 132.12 30.528H128.12ZM128.414 29.9335C128.549 29.8239 128.631 29.8082 128.56 29.8325C128.501 29.8527 128.375 29.8866 128.161 29.9203C127.73 29.9882 127.093 30.032 126.216 30.032V34.032C127.195 34.032 128.062 33.9851 128.783 33.8717C129.418 33.7717 130.272 33.5757 130.93 33.0425L128.414 29.9335ZM126.216 30.032C125.732 30.032 125.259 30.0219 124.799 30.0019L124.625 33.9981C125.146 34.0208 125.676 34.032 126.216 34.032V30.032ZM124.885 30.0075C124.89 30.0079 124.906 30.0099 124.931 30.0171C124.955 30.0244 124.982 30.0353 125.007 30.0495C125.063 30.0802 125.08 30.1067 125.066 30.0887L121.926 32.5673C122.569 33.3819 123.469 33.8995 124.539 33.9925L124.885 30.0075ZM125.106 30.1416C125.025 30.0311 125.016 29.9703 125.014 29.9252L121.018 30.1068C121.059 31.0004 121.37 31.8143 121.886 32.5144L125.106 30.1416ZM125.015 29.966C124.952 27.4287 124.92 24.2361 124.92 20.384H120.92C120.92 24.2546 120.952 27.4833 121.017 30.066L125.015 29.966ZM124.92 20.384C124.92 16.497 124.931 13.9881 124.952 12.8364L120.952 12.7636C120.931 13.9586 120.92 16.5057 120.92 20.384H124.92ZM124.952 12.8364C124.961 12.3123 124.996 11.919 125.044 11.6369C125.095 11.3371 125.144 11.2563 125.124 11.2937L121.612 9.37829C121.104 10.3098 120.974 11.5657 120.952 12.7636L124.952 12.8364ZM125.141 11.2611C125.114 11.3127 125.071 11.3762 125.008 11.4383C124.945 11.5006 124.879 11.5446 124.822 11.5729C124.715 11.6264 124.692 11.6 124.84 11.6V7.6C123.64 7.6 122.305 8.0501 121.595 9.41087L125.141 11.2611ZM124.84 11.6H128.36V7.6H124.84V11.6ZM128.36 11.6C128.702 11.6 129.13 11.6935 129.666 11.9768L131.534 8.43923C130.534 7.91182 129.469 7.6 128.36 7.6V11.6ZM129.678 11.9829C136.283 15.4131 140.163 17.4174 141.29 17.9809L143.078 14.4031C141.987 13.8573 138.144 11.8722 131.522 8.4331L129.678 11.9829ZM141.332 18.0016C141.92 18.2782 143.008 18.6123 144.077 17.971L142.019 14.541C142.321 14.3599 142.62 14.3267 142.82 14.3415C142.994 14.3544 143.075 14.401 143.036 14.3824L141.332 18.0016ZM144.077 17.971C145.107 17.353 145.368 16.3036 145.368 15.552H141.368C141.368 15.5253 141.371 15.3687 141.467 15.1564C141.575 14.9187 141.765 14.6935 142.019 14.541L144.077 17.971ZM145.368 15.552V11.072H141.368V15.552H145.368ZM145.368 11.072C145.368 11.0245 145.374 11.0287 145.362 11.068C145.349 11.1113 145.321 11.1729 145.273 11.2354L142.103 8.79658C141.566 9.49485 141.368 10.3036 141.368 11.072H145.368ZM145.215 11.3079C145.153 11.381 145.052 11.4673 144.914 11.529C144.779 11.5894 144.669 11.6 144.616 11.6V7.6C143.682 7.6 142.8 7.96924 142.161 8.72412L145.215 11.3079Z" fill="#272727"/>
<path d="M163.376 32.64C160.795 32.64 158.459 32.3093 156.368 31.648C154.277 30.9653 152.581 30.0587 151.28 28.928C149.979 27.7973 148.987 26.5387 148.304 25.152C147.621 23.744 147.28 22.2827 147.28 20.768C147.28 19.2533 147.621 17.8027 148.304 16.416C149.008 15.008 150 13.7387 151.28 12.608C152.581 11.4773 154.277 10.5707 156.368 9.888C158.459 9.20533 160.752 8.864 163.248 8.864C165.744 8.864 167.952 9.17333 169.872 9.792C171.792 10.4107 173.339 11.2533 174.512 12.32C176.901 14.496 178.096 17.0773 178.096 20.064C178.096 21.5787 177.765 23.0613 177.104 24.512C176.464 25.9627 175.536 27.2853 174.32 28.48C173.125 29.6533 171.579 30.624 169.68 31.392C167.781 32.1387 165.68 32.5547 163.376 32.64ZM169.712 20.224C169.712 19.2 169.349 18.3147 168.624 17.568C167.899 16.8 166.789 16.416 165.296 16.416C163.824 16.416 162.651 16.8107 161.776 17.6C160.901 18.3893 160.464 19.3493 160.464 20.48C160.464 21.6107 160.923 22.5173 161.84 23.2C162.757 23.8827 163.856 24.224 165.136 24.224C166.437 24.224 167.525 23.808 168.4 22.976C169.275 22.144 169.712 21.2267 169.712 20.224Z" fill="#F5C359"/>
<path d="M163.376 32.64V34.64H163.413L163.45 34.6386L163.376 32.64ZM156.368 31.648L155.747 33.5492L155.756 33.5521L155.765 33.5549L156.368 31.648ZM151.28 28.928L149.968 30.4377L151.28 28.928ZM148.304 25.152L146.504 26.0246L146.51 26.0354L148.304 25.152ZM148.304 16.416L146.515 15.5216L146.51 15.5326L148.304 16.416ZM151.28 12.608L149.968 11.0983L149.962 11.1036L149.956 11.1091L151.28 12.608ZM156.368 9.888L155.747 7.98679V7.98679L156.368 9.888ZM169.872 9.792L169.259 11.6956V11.6956L169.872 9.792ZM174.512 12.32L175.859 10.8413L175.857 10.8401L174.512 12.32ZM177.104 24.512L175.284 23.6824L175.279 23.6935L175.274 23.7047L177.104 24.512ZM174.32 28.48L175.721 29.9069L175.722 29.9067L174.32 28.48ZM169.68 31.392L170.412 33.2532L170.421 33.2497L170.43 33.2461L169.68 31.392ZM168.624 17.568L167.17 18.9412L167.18 18.9515L167.189 18.9616L168.624 17.568ZM161.776 17.6L160.436 16.1152L161.776 17.6ZM161.84 23.2L160.646 24.8045L161.84 23.2ZM168.4 22.976L169.778 24.4251V24.4251L168.4 22.976ZM163.376 30.64C160.964 30.64 158.836 30.3309 156.971 29.7411L155.765 33.5549C158.082 34.2877 160.625 34.64 163.376 34.64V30.64ZM156.989 29.7468C155.085 29.1251 153.644 28.3324 152.592 27.4183L149.968 30.4377C151.519 31.7849 153.47 32.8055 155.747 33.5492L156.989 29.7468ZM152.592 27.4183C151.468 26.442 150.651 25.3904 150.098 24.2686L146.51 26.0354C147.323 27.687 148.489 29.1526 149.968 30.4377L152.592 27.4183ZM150.104 24.2795C149.548 23.1342 149.28 21.9703 149.28 20.768H145.28C145.28 22.5951 145.694 24.3538 146.504 26.0245L150.104 24.2795ZM149.28 20.768C149.28 19.5661 149.548 18.417 150.098 17.2994L146.51 15.5326C145.695 17.1883 145.28 18.9406 145.28 20.768H149.28ZM150.093 17.3104C150.673 16.1507 151.5 15.0823 152.604 14.1069L149.956 11.1091C148.5 12.395 147.343 13.8653 146.515 15.5216L150.093 17.3104ZM152.592 14.1177C153.644 13.2036 155.085 12.4109 156.989 11.7892L155.747 7.98679C153.47 8.73047 151.519 9.75109 149.968 11.0983L152.592 14.1177ZM156.989 11.7892C158.854 11.1802 160.935 10.864 163.248 10.864V6.864C160.569 6.864 158.063 7.23051 155.747 7.98679L156.989 11.7892ZM163.248 10.864C165.583 10.864 167.577 11.1539 169.259 11.6956L170.485 7.88838C168.327 7.19279 165.905 6.864 163.248 6.864V10.864ZM169.259 11.6956C170.978 12.2498 172.253 12.9697 173.167 13.7999L175.857 10.8401C174.424 9.53696 172.606 8.57153 170.485 7.88838L169.259 11.6956ZM173.165 13.7987C175.177 15.6305 176.096 17.69 176.096 20.064H180.096C180.096 16.4647 178.626 13.3615 175.859 10.8413L173.165 13.7987ZM176.096 20.064C176.096 21.2774 175.833 22.4782 175.284 23.6824L178.924 25.3416C179.698 23.6445 180.096 21.8799 180.096 20.064H176.096ZM175.274 23.7047C174.744 24.9067 173.967 26.0227 172.918 27.0533L175.722 29.9067C177.105 28.548 178.184 27.0186 178.934 25.3193L175.274 23.7047ZM172.919 27.0531C171.948 28.0067 170.638 28.8469 168.93 29.5379L170.43 33.2461C172.519 32.4011 174.303 31.3 175.721 29.9069L172.919 27.0531ZM168.948 29.5308C167.285 30.1848 165.409 30.5633 163.302 30.6414L163.45 34.6386C165.951 34.546 168.278 34.0925 170.412 33.2532L168.948 29.5308ZM171.712 20.224C171.712 18.67 171.14 17.2875 170.059 16.1744L167.189 18.9616C167.559 19.3419 167.712 19.73 167.712 20.224H171.712ZM170.078 16.1948C168.841 14.8845 167.107 14.416 165.296 14.416V18.416C166.471 18.416 166.957 18.7155 167.17 18.9412L170.078 16.1948ZM165.296 14.416C163.457 14.416 161.764 14.9172 160.436 16.1152L163.116 19.0848C163.538 18.7041 164.191 18.416 165.296 18.416V14.416ZM160.436 16.1152C159.161 17.2657 158.464 18.7569 158.464 20.48H162.464C162.464 19.9418 162.641 19.513 163.116 19.0848L160.436 16.1152ZM158.464 20.48C158.464 22.2512 159.228 23.7495 160.646 24.8045L163.034 21.5955C162.617 21.2852 162.464 20.9701 162.464 20.48H158.464ZM160.646 24.8045C161.949 25.7744 163.48 26.224 165.136 26.224V22.224C164.232 22.224 163.565 21.991 163.034 21.5955L160.646 24.8045ZM165.136 26.224C166.907 26.224 168.501 25.6399 169.778 24.4251L167.022 21.5269C166.549 21.9761 165.968 22.224 165.136 22.224V26.224ZM169.778 24.4251C170.963 23.2986 171.712 21.8842 171.712 20.224H167.712C167.712 20.5691 167.587 20.9894 167.022 21.5269L169.778 24.4251Z" fill="#272727"/>
<path d="M187.104 16.288L187.168 22.208C187.168 22.6133 187.392 22.816 187.84 22.816C189.163 22.816 190.197 22.4533 190.944 21.728C191.712 20.9813 192.096 20.1067 192.096 19.104C192.096 18.1013 191.733 17.2373 191.008 16.512C190.304 15.7867 189.259 15.424 187.872 15.424C187.36 15.424 187.104 15.712 187.104 16.288ZM195.488 25.856C195.893 26.2827 197.333 27.8933 199.808 30.688C199.957 30.88 200.032 31.0507 200.032 31.2C200.032 31.7547 199.787 32.032 199.296 32.032C198.165 32.0533 197.024 32.064 195.872 32.064C194.741 32.064 193.611 32.0533 192.48 32.032C191.861 32.032 191.296 31.7867 190.784 31.296L188.032 27.136C187.925 27.008 187.797 26.9227 187.648 26.88C187.307 26.752 187.136 26.8907 187.136 27.296V30.56C187.136 31.4773 186.528 31.968 185.312 32.032C184.117 32.096 182.805 32.128 181.376 32.128C179.947 32.128 178.219 32.0747 176.192 31.968C175.573 31.9253 175.072 31.712 174.688 31.328C174.325 30.944 174.112 30.5067 174.048 30.016C173.877 28.1387 173.792 25.1947 173.792 21.184C173.792 17.152 173.856 14.2187 173.984 12.384C174.112 10.5493 175.04 9.62133 176.768 9.6C178.389 9.57867 180.597 9.568 183.392 9.568C186.187 9.568 188.501 9.58933 190.336 9.632C192.981 9.67467 195.147 10.656 196.832 12.576C198.517 14.496 199.36 16.6613 199.36 19.072C199.36 20.48 199.029 21.7813 198.368 22.976C197.728 24.1707 196.768 25.1307 195.488 25.856Z" fill="#F574C9"/>
<path d="M187.104 16.288H185.104V16.2988L185.104 16.3096L187.104 16.288ZM187.168 22.208H189.168V22.1972L189.168 22.1864L187.168 22.208ZM190.944 21.728L192.338 23.1626L192.338 23.162L190.944 21.728ZM191.008 16.512L189.573 17.905L189.583 17.9157L189.594 17.9262L191.008 16.512ZM195.488 25.856L194.502 24.116L192.275 25.3778L194.038 27.2335L195.488 25.856ZM199.808 30.688L201.387 29.4601L201.348 29.4098L201.305 29.3621L199.808 30.688ZM199.296 32.032V30.032H199.277L199.258 30.0324L199.296 32.032ZM192.48 32.032L192.518 30.0324L192.499 30.032H192.48V32.032ZM190.784 31.296L189.116 32.3995L189.239 32.5856L189.4 32.74L190.784 31.296ZM188.032 27.136L189.7 26.0325L189.639 25.9404L189.568 25.8556L188.032 27.136ZM187.648 26.88L186.946 28.7527L187.021 28.7809L187.099 28.803L187.648 26.88ZM185.312 32.032L185.207 30.0348L185.205 30.0349L185.312 32.032ZM176.192 31.968L176.054 33.9633L176.071 33.9644L176.087 33.9652L176.192 31.968ZM174.688 31.328L173.234 32.7012L173.254 32.722L173.274 32.7422L174.688 31.328ZM174.048 30.016L172.056 30.1971L172.06 30.236L172.065 30.2747L174.048 30.016ZM176.768 9.6L176.793 11.5998L176.794 11.5998L176.768 9.6ZM190.336 9.632L190.29 11.6315L190.297 11.6316L190.304 11.6317L190.336 9.632ZM196.832 12.576L198.335 11.2566V11.2566L196.832 12.576ZM198.368 22.976L196.618 22.0074L196.612 22.0194L196.605 22.0316L198.368 22.976ZM185.104 16.3096L185.168 22.2296L189.168 22.1864L189.104 16.2664L185.104 16.3096ZM185.168 22.208C185.168 22.7735 185.333 23.5493 185.994 24.1471C186.617 24.7105 187.354 24.816 187.84 24.816V20.816C187.878 20.816 188.279 20.8202 188.678 21.1809C189.115 21.5761 189.168 22.0479 189.168 22.208H185.168ZM187.84 24.816C189.536 24.816 191.124 24.3416 192.338 23.1626L189.55 20.2934C189.271 20.5651 188.79 20.816 187.84 20.816V24.816ZM192.338 23.162C193.464 22.0674 194.096 20.6866 194.096 19.104H190.096C190.096 19.5268 189.96 19.8953 189.55 20.294L192.338 23.162ZM194.096 19.104C194.096 17.5574 193.513 16.1885 192.422 15.0978L189.594 17.9262C189.954 18.2862 190.096 18.6453 190.096 19.104H194.096ZM192.443 15.119C191.24 13.8789 189.593 13.424 187.872 13.424V17.424C188.924 17.424 189.368 17.6944 189.573 17.905L192.443 15.119ZM187.872 13.424C187.243 13.424 186.423 13.6118 185.801 14.3113C185.219 14.9658 185.104 15.7459 185.104 16.288H189.104C189.104 16.2893 189.104 16.3067 189.1 16.3374C189.096 16.3682 189.088 16.4166 189.07 16.4782C189.032 16.6043 188.952 16.7872 188.791 16.9687C188.425 17.3802 187.989 17.424 187.872 17.424V13.424ZM194.038 27.2335C194.412 27.6276 195.821 29.202 198.311 32.0139L201.305 29.3621C198.846 26.5847 197.374 24.9378 196.938 24.4785L194.038 27.2335ZM198.229 31.9159C198.229 31.9149 198.219 31.9026 198.204 31.879C198.19 31.8555 198.168 31.8163 198.144 31.7616C198.097 31.6548 198.032 31.4605 198.032 31.2H202.032C202.032 30.4028 201.651 29.7994 201.387 29.4601L198.229 31.9159ZM198.032 31.2C198.032 31.1977 198.032 31.1209 198.068 30.9983C198.106 30.8692 198.187 30.6833 198.35 30.4989C198.72 30.0803 199.165 30.032 199.296 30.032V34.032C199.918 34.032 200.73 33.8451 201.346 33.1491C201.92 32.5 202.032 31.7294 202.032 31.2H198.032ZM199.258 30.0324C198.14 30.0534 197.012 30.064 195.872 30.064V34.064C197.036 34.064 198.19 34.0532 199.334 34.0316L199.258 30.0324ZM195.872 30.064C194.754 30.064 193.636 30.0535 192.518 30.0324L192.442 34.0316C193.586 34.0532 194.729 34.064 195.872 34.064V30.064ZM192.48 30.032C192.453 30.032 192.366 30.0422 192.168 29.852L189.4 32.74C190.226 33.5312 191.27 34.032 192.48 34.032V30.032ZM192.452 30.1925L189.7 26.0325L186.364 28.2395L189.116 32.3995L192.452 30.1925ZM189.568 25.8556C189.224 25.4428 188.761 25.1181 188.197 24.957L187.099 28.803C186.833 28.7273 186.626 28.5732 186.496 28.4164L189.568 25.8556ZM188.35 25.0073C187.969 24.8643 186.933 24.5799 186.003 25.3358C185.177 26.0068 185.136 26.9648 185.136 27.296H189.136C189.136 27.3195 189.135 27.4523 189.076 27.6407C189.015 27.8374 188.866 28.1637 188.525 28.4402C187.765 29.0575 186.986 28.7677 186.946 28.7527L188.35 25.0073ZM185.136 27.296V30.56H189.136V27.296H185.136ZM185.136 30.56C185.136 30.5692 185.135 30.4936 185.186 30.3751C185.241 30.2476 185.328 30.1366 185.424 30.0596C185.51 29.9899 185.563 29.9799 185.528 29.9905C185.491 30.0018 185.391 30.0251 185.207 30.0348L185.417 34.0292C186.227 33.9866 187.167 33.7928 187.936 33.1724C188.795 32.4792 189.136 31.5057 189.136 30.56H185.136ZM185.205 30.0349C184.052 30.0966 182.776 30.128 181.376 30.128V34.128C182.834 34.128 184.183 34.0954 185.419 34.0291L185.205 30.0349ZM181.376 30.128C179.993 30.128 178.302 30.0763 176.297 29.9708L176.087 33.9652C178.135 34.073 179.9 34.128 181.376 34.128V30.128ZM176.33 29.9727C176.212 29.9646 176.155 29.944 176.135 29.9357C176.119 29.929 176.112 29.924 176.102 29.9138L173.274 32.7422C174.048 33.5159 175.027 33.8924 176.054 33.9633L176.33 29.9727ZM176.142 29.9548C176.048 29.8553 176.037 29.8011 176.031 29.7573L172.065 30.2747C172.187 31.2123 172.603 32.0327 173.234 32.7012L176.142 29.9548ZM176.04 29.8349C175.878 28.0534 175.792 25.1857 175.792 21.184H171.792C171.792 25.2036 171.877 28.2239 172.056 30.1971L176.04 29.8349ZM175.792 21.184C175.792 17.1572 175.856 14.2834 175.979 12.5232L171.989 12.2448C171.856 14.154 171.792 17.1468 171.792 21.184H175.792ZM175.979 12.5232C176.023 11.895 176.182 11.7341 176.19 11.7262C176.198 11.7188 176.221 11.6959 176.295 11.6693C176.378 11.6397 176.534 11.603 176.793 11.5998L176.743 7.60015C175.528 7.61515 174.3 7.95937 173.362 8.89778C172.442 9.81794 172.073 11.0383 171.989 12.2448L175.979 12.5232ZM176.794 11.5998C178.403 11.5787 180.601 11.568 183.392 11.568V7.568C180.594 7.568 178.376 7.57867 176.742 7.60017L176.794 11.5998ZM183.392 11.568C186.178 11.568 188.476 11.5893 190.29 11.6315L190.382 7.63254C188.527 7.58938 186.195 7.568 183.392 7.568V11.568ZM190.304 11.6317C192.408 11.6657 194.031 12.4164 195.329 13.8954L198.335 11.2566C196.263 8.89563 193.555 7.68366 190.368 7.63226L190.304 11.6317ZM195.329 13.8954C196.715 15.4742 197.36 17.1775 197.36 19.072H201.36C201.36 16.1451 200.32 13.5178 198.335 11.2566L195.329 13.8954ZM197.36 19.072C197.36 20.1521 197.11 21.1186 196.618 22.0074L200.118 23.9446C200.948 22.444 201.36 20.8079 201.36 19.072H197.36ZM196.605 22.0316C196.159 22.8645 195.482 23.5605 194.502 24.116L196.474 27.596C198.054 26.7009 199.297 25.4769 200.131 23.9204L196.605 22.0316Z" fill="#272727"/>
<path d="M201.416 9.6H209.992C210.888 9.6 211.475 9.824 211.752 10.272C212.051 10.72 212.243 11.648 212.328 13.056C212.435 14.4427 212.488 17.152 212.488 21.184C212.488 25.1947 212.403 28.1387 212.232 30.016C212.168 30.5067 211.944 30.944 211.56 31.328C211.197 31.712 210.707 31.9253 210.088 31.968C208.872 32.0533 207.464 32.096 205.864 32.096C204.264 32.096 202.749 32.0533 201.32 31.968C200.701 31.9253 200.2 31.712 199.816 31.328C199.453 30.944 199.24 30.5067 199.176 30.016C199.005 28.1387 198.92 25.1947 198.92 21.184C198.92 17.152 198.963 14.4427 199.048 13.056C199.155 11.648 199.347 10.72 199.624 10.272C199.923 9.824 200.52 9.6 201.416 9.6Z" fill="#F5C359"/>
<path d="M211.752 10.272L210.051 11.3247L210.069 11.3534L210.088 11.3814L211.752 10.272ZM212.328 13.056L210.332 13.177L210.333 13.1932L210.334 13.2094L212.328 13.056ZM212.232 30.016L214.215 30.2747L214.22 30.236L214.224 30.1971L212.232 30.016ZM211.56 31.328L210.146 29.9138L210.126 29.934L210.106 29.9548L211.56 31.328ZM210.088 31.968L209.95 29.9727L209.948 29.9729L210.088 31.968ZM201.32 31.968L201.182 33.9633L201.192 33.9639L201.201 33.9644L201.32 31.968ZM199.816 31.328L198.362 32.7012L198.382 32.722L198.402 32.7422L199.816 31.328ZM199.176 30.016L197.184 30.1971L197.188 30.236L197.193 30.2747L199.176 30.016ZM199.048 13.056L197.054 12.9049L197.053 12.919L197.052 12.9332L199.048 13.056ZM199.624 10.272L197.96 9.1626L197.941 9.19064L197.923 9.21929L199.624 10.272ZM201.416 11.6H209.992V7.6H201.416V11.6ZM209.992 11.6C210.135 11.6 210.238 11.609 210.307 11.6196C210.377 11.6301 210.401 11.6403 210.391 11.6364C210.379 11.632 210.327 11.6106 210.258 11.5567C210.186 11.5006 210.112 11.4225 210.051 11.3247L213.453 9.21929C212.61 7.85907 211.088 7.6 209.992 7.6V11.6ZM210.088 11.3814C210.025 11.2876 210.084 11.3349 210.161 11.7092C210.231 12.0462 210.292 12.5272 210.332 13.177L214.324 12.935C214.278 12.1768 214.201 11.4898 214.079 10.8988C213.964 10.3451 213.777 9.70445 213.416 9.1626L210.088 11.3814ZM210.334 13.2094C210.434 14.5074 210.488 17.1411 210.488 21.184H214.488C214.488 17.1629 214.436 14.378 214.322 12.9026L210.334 13.2094ZM210.488 21.184C210.488 25.1857 210.402 28.0534 210.24 29.8349L214.224 30.1971C214.403 28.2239 214.488 25.2036 214.488 21.184H210.488ZM210.249 29.7573C210.247 29.7675 210.25 29.8095 210.146 29.9138L212.974 32.7422C213.638 32.0785 214.089 31.2458 214.215 30.2747L210.249 29.7573ZM210.106 29.9548C210.107 29.9536 210.111 29.9497 210.117 29.9455C210.123 29.9414 210.126 29.9404 210.123 29.9419C210.117 29.9444 210.068 29.9646 209.95 29.9727L210.226 33.9633C211.253 33.8924 212.247 33.5131 213.014 32.7012L210.106 29.9548ZM209.948 29.9729C208.79 30.0541 207.431 30.096 205.864 30.096V34.096C207.497 34.096 208.954 34.0525 210.228 33.9631L209.948 29.9729ZM205.864 30.096C204.299 30.096 202.825 30.0543 201.439 29.9716L201.201 33.9644C202.674 34.0524 204.229 34.096 205.864 34.096V30.096ZM201.458 29.9727C201.34 29.9646 201.283 29.944 201.263 29.9357C201.247 29.929 201.24 29.924 201.23 29.9138L198.402 32.7422C199.176 33.5159 200.155 33.8924 201.182 33.9633L201.458 29.9727ZM201.27 29.9548C201.176 29.8553 201.165 29.8011 201.159 29.7573L197.193 30.2747C197.315 31.2123 197.731 32.0327 198.362 32.7012L201.27 29.9548ZM201.168 29.8349C201.006 28.0534 200.92 25.1857 200.92 21.184H196.92C196.92 25.2036 197.005 28.2239 197.184 30.1971L201.168 29.8349ZM200.92 21.184C200.92 17.1433 200.963 14.4944 201.044 13.1788L197.052 12.9332C196.962 14.3909 196.92 17.1607 196.92 21.184H200.92ZM201.042 13.2071C201.092 12.5514 201.158 12.0595 201.231 11.7092C201.311 11.3217 201.371 11.2501 201.325 11.3247L197.923 9.21929C197.6 9.74192 197.425 10.3583 197.313 10.8988C197.194 11.4765 197.111 12.1526 197.054 12.9049L201.042 13.2071ZM201.288 11.3814C201.232 11.4656 201.166 11.5315 201.104 11.578C201.044 11.6227 201.003 11.639 200.998 11.6407C200.995 11.6418 201.024 11.6308 201.097 11.6199C201.169 11.609 201.274 11.6 201.416 11.6V7.6C200.301 7.6 198.824 7.86671 197.96 9.1626L201.288 11.3814Z" fill="#272727"/>
</svg>
