<svg width="32" height="32" viewBox="0 0 32 32" fill="none" xmlns="http://www.w3.org/2000/svg">
<path fill-rule="evenodd" clip-rule="evenodd" d="M15.9999 30.6668C7.89974 30.6668 1.33325 24.1003 1.33325 16.0002C1.33325 7.89999 7.89974 1.3335 15.9999 1.3335C24.1001 1.3335 30.6666 7.89999 30.6666 16.0002C30.6666 24.1003 24.1001 30.6668 15.9999 30.6668ZM15.9999 28.0002C22.6273 28.0002 27.9999 22.6276 27.9999 16.0002C27.9999 9.37275 22.6273 4.00016 15.9999 4.00016C9.3725 4.00016 3.99992 9.37275 3.99992 16.0002C3.99992 22.6276 9.3725 28.0002 15.9999 28.0002ZM17.3333 22.6668V13.8858L20.3904 16.943L22.2761 15.0574L15.9999 8.78121L9.72378 15.0574L11.6094 16.943L14.6666 13.8858V22.6668H17.3333Z" fill="#666666"/>
</svg>
