<svg width="207" height="68" viewBox="0 0 207 68" fill="none" xmlns="http://www.w3.org/2000/svg">
<g filter="url(#filter0_b_2572_9660)">
<path fill-rule="evenodd" clip-rule="evenodd" d="M0 11C0 4.92487 4.92487 0 11 0H196C202.075 0 207 4.92487 207 11V57C207 63.0751 202.075 68 196 68H11C4.92487 68 0 63.0751 0 57V40.9864C4.17723 40.9856 7.56326 38.0666 7.56326 34.4659C7.56326 30.8651 4.17723 27.9461 0 27.9453V11Z" fill="#DB2647"/>
</g>
<path d="M40.8156 37.98H42.4556V44.58H40.8156V37.98ZM33.4756 37.4H49.8156V38.78H33.4756V37.4ZM40.7956 29.58H42.2556V30.04C42.2556 33.16 38.8756 35.46 35.0756 36.04L34.4956 34.72C37.7556 34.28 40.7956 32.3 40.7956 30.04V29.58ZM41.0156 29.58H42.4556V30.04C42.4556 32.28 45.5156 34.28 48.7556 34.72L48.1556 36.04C44.3756 35.48 41.0156 33.12 41.0156 30.04V29.58ZM35.0556 28.7H48.2356V30.06H35.0556V28.7ZM40.8156 26.48H42.4556V29.18H40.8156V26.48ZM56.374 29.88H57.734V30.78C57.734 34.04 55.754 36.72 52.734 37.78L51.914 36.48C54.594 35.56 56.374 33.32 56.374 30.78V29.88ZM56.654 29.88H58.034V30.78C58.034 33.18 59.874 35.3 62.554 36.14L61.734 37.46C58.714 36.46 56.654 33.9 56.654 30.78V29.88ZM52.374 28.9H62.014V30.24H52.374V28.9ZM56.374 26.6H58.034V29.4H56.374V26.6ZM61.414 32.04H65.974V33.42H61.414V32.04ZM65.074 26.5H66.734V39.98H65.074V26.5ZM55.194 42.8H67.234V44.16H55.194V42.8ZM55.194 38.78H56.854V43.54H55.194V38.78ZM79.8478 27.42H81.2278V29.26C81.2278 32.74 79.2678 35.62 76.2478 36.8L75.3678 35.46C78.0878 34.46 79.8478 32.02 79.8478 29.26V27.42ZM80.1478 27.42H81.5078V29.38C81.5078 31.82 83.3078 34.08 85.9078 34.98L85.0278 36.28C82.1278 35.2 80.1478 32.52 80.1478 29.38V27.42ZM87.8278 26.48H89.4878V37.44H87.8278V26.48ZM89.0278 31.14H92.1678V32.54H89.0278V31.14ZM83.7278 37.94C87.4278 37.94 89.6678 39.16 89.6678 41.24C89.6678 43.32 87.4278 44.52 83.7278 44.52C80.0278 44.52 77.7878 43.32 77.7878 41.24C77.7878 39.16 80.0278 37.94 83.7278 37.94ZM83.7278 39.26C81.0478 39.26 79.4078 39.98 79.4078 41.24C79.4078 42.5 81.0478 43.22 83.7278 43.22C86.4078 43.22 88.0478 42.5 88.0478 41.24C88.0478 39.98 86.4078 39.26 83.7278 39.26ZM101.206 36.08H102.846V39.2H101.206V36.08ZM93.8462 35.2H110.186V36.56H93.8462V35.2ZM95.3662 27.04H108.646V28.4H95.3662V27.04ZM95.4462 32.18H108.566V33.54H95.4462V32.18ZM98.1062 27.64H99.7662V33.06H98.1062V27.64ZM104.266 27.64H105.906V33.06H104.266V27.64ZM95.8462 38.66H108.186V44.32H95.8462V38.66ZM106.566 39.98H97.4862V42.98H106.566V39.98ZM117.46 40.88H133.84V42.26H117.46V40.88ZM124.78 36.56H126.44V41.28H124.78V36.56ZM119.38 27.76H121.02V30.98H130.24V27.76H131.88V37H119.38V27.76ZM121.02 32.32V35.64H130.24V32.32H121.02ZM149.018 26.48H150.678V44.56H149.018V26.48ZM143.718 28.42H145.358C145.358 33.66 142.998 38.24 136.958 41.2L136.078 39.86C141.298 37.34 143.718 33.5 143.718 28.7V28.42ZM136.898 28.42H144.438V29.78H136.898V28.42Z" fill="white"/>
<path fill-rule="evenodd" clip-rule="evenodd" d="M188.232 35.0001L179.116 25.2762L180.884 23.3906L191.768 35.0001L180.884 46.6096L179.116 44.724L188.232 35.0001Z" fill="white"/>
<defs>
<filter id="filter0_b_2572_9660" x="-4" y="-4" width="215" height="76" filterUnits="userSpaceOnUse" color-interpolation-filters="sRGB">
<feFlood flood-opacity="0" result="BackgroundImageFix"/>
<feGaussianBlur in="BackgroundImageFix" stdDeviation="2"/>
<feComposite in2="SourceAlpha" operator="in" result="effect1_backgroundBlur_2572_9660"/>
<feBlend mode="normal" in="SourceGraphic" in2="effect1_backgroundBlur_2572_9660" result="shape"/>
</filter>
</defs>
</svg>
