<svg width="200" height="50" viewBox="0 0 200 50" fill="none" xmlns="http://www.w3.org/2000/svg">
<rect x="0.5" y="0.5" width="199" height="49" rx="24.5" fill="#F5C359" stroke="#272727"/>
<path d="M67.098 18.878H76.152V20.102H67.098V18.878ZM66.864 29.39L66.684 28.112C69.618 28.112 73.56 28.076 76.908 27.662L76.998 28.778C73.596 29.336 69.726 29.39 66.864 29.39ZM68.844 19.796H70.302V28.454H68.844V19.796ZM72.948 19.796H74.406V28.454H72.948V19.796ZM77.898 17.132H79.41V33.404H77.898V17.132ZM79.05 23.63H82.074V24.89H79.05V23.63ZM87.1126 17.726C89.5426 17.726 91.3246 19.202 91.3246 21.344C91.3246 23.468 89.5426 24.944 87.1126 24.944C84.7006 24.944 82.9186 23.468 82.9186 21.344C82.9186 19.202 84.7006 17.726 87.1126 17.726ZM87.1126 18.95C85.5466 18.95 84.3586 19.94 84.3586 21.344C84.3586 22.748 85.5466 23.72 87.1126 23.72C88.6966 23.72 89.8666 22.748 89.8666 21.344C89.8666 19.94 88.6966 18.95 87.1126 18.95ZM94.3846 17.132H95.8966V25.466H94.3846V17.132ZM85.3666 26.258H95.8966V30.218H86.8606V32.666H85.4026V29.102H94.4206V27.464H85.3666V26.258ZM85.4026 32H96.4366V33.188H85.4026V32ZM110.327 20.966H114.431V22.208H110.327V20.966ZM106.061 18.122H107.267V20.12C107.267 23.27 105.503 25.898 102.785 26.996L102.011 25.808C104.423 24.908 106.061 22.604 106.061 20.12V18.122ZM106.349 18.122H107.555V20.174C107.555 22.442 109.139 24.584 111.497 25.448L110.687 26.6C108.095 25.592 106.349 23.072 106.349 20.174V18.122ZM113.873 17.15H115.367V29.318H113.873V17.15ZM104.909 31.82H115.763V33.044H104.909V31.82ZM104.909 27.968H106.403V32.396H104.909V27.968ZM118.336 24.908H119.38C121.936 24.908 123.448 24.854 125.266 24.494L125.41 25.718C123.538 26.078 121.99 26.15 119.38 26.15H118.336V24.908ZM118.336 18.32H124.636V19.544H119.776V25.574H118.336V18.32ZM119.326 21.56H124.438V22.73H119.326V21.56ZM129.928 17.132H131.35V26.996H129.928V17.132ZM127.3 21.38H130.378V22.604H127.3V21.38ZM126.346 17.438H127.75V26.906H126.346V17.438ZM120.442 27.86H131.35V33.404H129.874V29.084H120.442V27.86Z" fill="#272727"/>
</svg>
