<svg width="200" height="50" viewBox="0 0 200 50" fill="none" xmlns="http://www.w3.org/2000/svg">
<rect x="0.5" y="0.5" width="199" height="49" rx="24.5" fill="#F5C359" stroke="#272727"/>
<path d="M62.898 17.114H64.41V33.404H62.898V17.114ZM63.996 23.72H67.002V24.962H63.996V23.72ZM58.74 18.878H60.198C60.198 23.504 58.074 27.68 52.818 30.326L51.99 29.174C56.49 26.888 58.74 23.414 58.74 19.112V18.878ZM52.746 18.878H59.514V20.102H52.746V18.878ZM71.5006 17.978H72.7426V19.634C72.7426 22.766 70.9786 25.358 68.2606 26.42L67.4686 25.214C69.9166 24.314 71.5006 22.118 71.5006 19.634V17.978ZM71.7706 17.978H72.9946V19.742C72.9946 21.938 74.6146 23.972 76.9546 24.782L76.1626 25.952C73.5526 24.98 71.7706 22.568 71.7706 19.742V17.978ZM78.6826 17.132H80.1766V26.996H78.6826V17.132ZM79.7626 21.326H82.5886V22.586H79.7626V21.326ZM74.9926 27.446C78.3226 27.446 80.3386 28.544 80.3386 30.416C80.3386 32.288 78.3226 33.368 74.9926 33.368C71.6626 33.368 69.6466 32.288 69.6466 30.416C69.6466 28.544 71.6626 27.446 74.9926 27.446ZM74.9926 28.634C72.5806 28.634 71.1046 29.282 71.1046 30.416C71.1046 31.55 72.5806 32.198 74.9926 32.198C77.4046 32.198 78.8806 31.55 78.8806 30.416C78.8806 29.282 77.4046 28.634 74.9926 28.634ZM87.569 19.004H93.779V29.048H87.569V19.004ZM92.375 20.192H88.973V27.86H92.375V20.192ZM99.377 17.132H100.817V33.404H99.377V17.132ZM93.023 23.252H96.767V24.494H93.023V23.252ZM96.155 17.474H97.577V32.594H96.155V17.474ZM114.46 17.114H115.954V33.422H114.46V17.114ZM107.368 18.374C109.78 18.374 111.508 20.588 111.508 24.044C111.508 27.518 109.78 29.732 107.368 29.732C104.974 29.732 103.246 27.518 103.246 24.044C103.246 20.588 104.974 18.374 107.368 18.374ZM107.368 19.724C105.784 19.724 104.668 21.416 104.668 24.044C104.668 26.69 105.784 28.418 107.368 28.418C108.97 28.418 110.068 26.69 110.068 24.044C110.068 21.416 108.97 19.724 107.368 19.724ZM120.056 18.788H130.388V20.012H120.056V18.788ZM118.31 29.894H133.016V31.154H118.31V29.894ZM129.74 18.788H131.198V20.786C131.198 23.18 131.198 25.394 130.514 28.724L129.038 28.58C129.74 25.448 129.74 23.126 129.74 20.786V18.788ZM130.118 23.288V24.404L119.84 24.962L119.624 23.72L130.118 23.288ZM142.141 21.002H146.515V22.244H142.141V21.002ZM138.397 17.87C140.827 17.87 142.591 19.418 142.591 21.65C142.591 23.882 140.827 25.412 138.397 25.412C135.967 25.412 134.203 23.882 134.203 21.65C134.203 19.418 135.967 17.87 138.397 17.87ZM138.397 19.13C136.795 19.13 135.643 20.156 135.643 21.65C135.643 23.126 136.795 24.17 138.397 24.17C139.999 24.17 141.151 23.126 141.151 21.65C141.151 20.156 139.999 19.13 138.397 19.13ZM145.849 17.132H147.343V25.862H145.849V17.132ZM136.921 26.672H138.415V28.724H145.867V26.672H147.343V33.188H136.921V26.672ZM138.415 29.912V31.982H145.867V29.912H138.415Z" fill="#272727"/>
</svg>
