<svg width="180" height="60" viewBox="0 0 180 60" fill="none" xmlns="http://www.w3.org/2000/svg">
<g filter="url(#filter0_b_2623_9895)">
<mask id="path-1-inside-1_2623_9895" fill="white">
<path fill-rule="evenodd" clip-rule="evenodd" d="M10 0C4.47715 0 0 4.47715 0 10V23.6655C1.49398 23.7787 2.90417 24.4107 3.97123 25.4561C5.15352 26.6144 5.81773 28.1854 5.81772 29.8235C5.81772 31.4616 5.15352 33.0326 3.97123 34.191C2.90417 35.2364 1.49398 35.8683 0 35.9816V50C0 55.5228 4.47716 60 10 60H170C175.523 60 180 55.5228 180 50V10C180 4.47715 175.523 0 170 0H10Z"/>
</mask>
<path fill-rule="evenodd" clip-rule="evenodd" d="M10 0C4.47715 0 0 4.47715 0 10V23.6655C1.49398 23.7787 2.90417 24.4107 3.97123 25.4561C5.15352 26.6144 5.81773 28.1854 5.81772 29.8235C5.81772 31.4616 5.15352 33.0326 3.97123 34.191C2.90417 35.2364 1.49398 35.8683 0 35.9816V50C0 55.5228 4.47716 60 10 60H170C175.523 60 180 55.5228 180 50V10C180 4.47715 175.523 0 170 0H10Z" fill="#DB2647"/>
<path d="M0 23.6655H-1V24.5925L-0.0755904 24.6626L0 23.6655ZM3.97123 25.4561L3.2714 26.1704L3.27141 26.1704L3.97123 25.4561ZM5.81772 29.8235L4.81772 29.8235V29.8235H5.81772ZM3.97123 34.191L3.2714 33.4766L3.2714 33.4766L3.97123 34.191ZM0 35.9816L-0.0755904 34.9844L-1 35.0545V35.9816H0ZM1 10C1 5.02944 5.02944 1 10 1V-1C3.92487 -1 -1 3.92487 -1 10H1ZM1 23.6655V10H-1V23.6655H1ZM4.67106 24.7418C3.43329 23.5291 1.80105 22.7991 0.0755904 22.6683L-0.0755904 24.6626C1.18691 24.7583 2.37505 25.2922 3.2714 26.1704L4.67106 24.7418ZM6.81772 29.8235C6.81773 27.9135 6.04308 26.086 4.67106 24.7418L3.27141 26.1704C4.26396 27.1428 4.81773 28.4573 4.81772 29.8235L6.81772 29.8235ZM4.67106 34.9053C6.04308 33.5611 6.81772 31.7335 6.81772 29.8235H4.81772C4.81772 31.1897 4.26396 32.5042 3.2714 33.4766L4.67106 34.9053ZM0.0755904 36.9787C1.80105 36.8479 3.43329 36.1179 4.67106 34.9053L3.2714 33.4766C2.37505 34.3548 1.18691 34.8887 -0.0755904 34.9844L0.0755904 36.9787ZM1 50V35.9816H-1V50H1ZM10 59C5.02944 59 1 54.9706 1 50H-1C-1 56.0751 3.92487 61 10 61V59ZM170 59H10V61H170V59ZM179 50C179 54.9706 174.971 59 170 59V61C176.075 61 181 56.0751 181 50H179ZM179 10V50H181V10H179ZM170 1C174.971 1 179 5.02944 179 10H181C181 3.92487 176.075 -1 170 -1V1ZM10 1H170V-1H10V1Z" fill="#272727" mask="url(#path-1-inside-1_2623_9895)"/>
</g>
<path d="M21.476 25.004H27.686V35.048H21.476V25.004ZM26.282 26.192H22.88V33.86H26.282V26.192ZM33.284 23.132H34.724V39.404H33.284V23.132ZM26.93 29.252H30.674V30.494H26.93V29.252ZM30.062 23.474H31.484V38.594H30.062V23.474ZM48.3666 23.114H49.8606V39.422H48.3666V23.114ZM41.2746 24.374C43.6866 24.374 45.4146 26.588 45.4146 30.044C45.4146 33.518 43.6866 35.732 41.2746 35.732C38.8806 35.732 37.1526 33.518 37.1526 30.044C37.1526 26.588 38.8806 24.374 41.2746 24.374ZM41.2746 25.724C39.6906 25.724 38.5746 27.416 38.5746 30.044C38.5746 32.69 39.6906 34.418 41.2746 34.418C42.8766 34.418 43.9746 32.69 43.9746 30.044C43.9746 27.416 42.8766 25.724 41.2746 25.724ZM53.9632 24.788H64.2952V26.012H53.9632V24.788ZM52.2172 35.894H66.9232V37.154H52.2172V35.894ZM63.6472 24.788H65.1052V26.786C65.1052 29.18 65.1052 31.394 64.4212 34.724L62.9452 34.58C63.6472 31.448 63.6472 29.126 63.6472 26.786V24.788ZM64.0252 29.288V30.404L53.7472 30.962L53.5312 29.72L64.0252 29.288ZM76.0478 27.002H80.4218V28.244H76.0478V27.002ZM72.3038 23.87C74.7338 23.87 76.4978 25.418 76.4978 27.65C76.4978 29.882 74.7338 31.412 72.3038 31.412C69.8738 31.412 68.1098 29.882 68.1098 27.65C68.1098 25.418 69.8738 23.87 72.3038 23.87ZM72.3038 25.13C70.7018 25.13 69.5498 26.156 69.5498 27.65C69.5498 29.126 70.7018 30.17 72.3038 30.17C73.9058 30.17 75.0578 29.126 75.0578 27.65C75.0578 26.156 73.9058 25.13 72.3038 25.13ZM79.7558 23.132H81.2498V31.862H79.7558V23.132ZM70.8278 32.672H72.3218V34.724H79.7738V32.672H81.2498V39.188H70.8278V32.672ZM72.3218 35.912V37.982H79.7738V35.912H72.3218ZM93.9342 29.558H97.0122V30.782H93.9342V29.558ZM90.6222 27.29H91.7742V28.136C91.7742 31.376 90.4242 34.652 88.0482 36.074L87.1662 34.94C89.3622 33.662 90.6222 30.8 90.6222 28.136V27.29ZM90.8922 27.29H92.0442V28.136C92.0442 30.728 93.3402 33.41 95.5362 34.598L94.6902 35.714C92.2962 34.382 90.8922 31.304 90.8922 28.136V27.29ZM87.6162 26.12H95.0502V27.362H87.6162V26.12ZM90.6222 23.708H92.0622V27.074H90.6222V23.708ZM99.6762 23.132H101.116V39.404H99.6762V23.132ZM96.4182 23.51H97.8222V38.576H96.4182V23.51ZM114.849 23.132H116.343V32.978H114.849V23.132ZM112.149 28.064H115.515V29.306H112.149V28.064ZM105.795 33.842H116.343V39.188H105.795V33.842ZM114.885 35.048H107.253V37.982H114.885V35.048ZM102.987 24.824H112.401V26.03H102.987V24.824ZM107.685 26.858C109.881 26.858 111.447 28.046 111.447 29.774C111.447 31.502 109.881 32.654 107.685 32.654C105.489 32.654 103.923 31.502 103.923 29.774C103.923 28.046 105.489 26.858 107.685 26.858ZM107.685 28.01C106.317 28.01 105.345 28.712 105.345 29.774C105.345 30.818 106.317 31.52 107.685 31.52C109.053 31.52 110.025 30.818 110.025 29.774C110.025 28.712 109.053 28.01 107.685 28.01ZM106.947 22.97H108.441V25.688H106.947V22.97Z" fill="white"/>
<path d="M155 36.6471L163 29.5882L155 22.5294" stroke="white" stroke-width="1.5" stroke-linecap="round" stroke-linejoin="round"/>
<defs>
<filter id="filter0_b_2623_9895" x="-4" y="-4" width="188" height="68" filterUnits="userSpaceOnUse" color-interpolation-filters="sRGB">
<feFlood flood-opacity="0" result="BackgroundImageFix"/>
<feGaussianBlur in="BackgroundImageFix" stdDeviation="2"/>
<feComposite in2="SourceAlpha" operator="in" result="effect1_backgroundBlur_2623_9895"/>
<feBlend mode="normal" in="SourceGraphic" in2="effect1_backgroundBlur_2623_9895" result="shape"/>
</filter>
</defs>
</svg>
