<svg width="280" height="60" viewBox="0 0 280 60" fill="none" xmlns="http://www.w3.org/2000/svg">
<g filter="url(#filter0_b_2623_9914)">
<mask id="path-1-inside-1_2623_9914" fill="white">
<path fill-rule="evenodd" clip-rule="evenodd" d="M10 0C4.47715 0 0 4.47715 0 10V23.6655C2.32397 23.7787 4.5176 24.4107 6.17747 25.4561C8.01659 26.6144 9.04979 28.1854 9.04979 29.8235C9.04979 31.4616 8.01658 33.0326 6.17747 34.191C4.51759 35.2364 2.32397 35.8683 0 35.9816V50C0 55.5228 4.47715 60 10 60H270C275.523 60 280 55.5228 280 50V10C280 4.47715 275.523 0 270 0H10Z"/>
</mask>
<path fill-rule="evenodd" clip-rule="evenodd" d="M10 0C4.47715 0 0 4.47715 0 10V23.6655C2.32397 23.7787 4.5176 24.4107 6.17747 25.4561C8.01659 26.6144 9.04979 28.1854 9.04979 29.8235C9.04979 31.4616 8.01658 33.0326 6.17747 34.191C4.51759 35.2364 2.32397 35.8683 0 35.9816V50C0 55.5228 4.47715 60 10 60H270C275.523 60 280 55.5228 280 50V10C280 4.47715 275.523 0 270 0H10Z" fill="#DB2647"/>
<path d="M0 23.6655H-1V24.6179L-0.0486755 24.6643L0 23.6655ZM6.17747 25.4561L5.64454 26.3023L5.64454 26.3023L6.17747 25.4561ZM9.04979 29.8235L10.0498 29.8235V29.8235H9.04979ZM6.17747 34.191L5.64454 33.3448L5.64454 33.3448L6.17747 34.191ZM0 35.9816L-0.0486755 34.9828L-1 35.0291V35.9816H0ZM1 10C1 5.02944 5.02944 1 10 1V-1C3.92487 -1 -1 3.92487 -1 10H1ZM1 23.6655V10H-1V23.6655H1ZM6.7104 24.6099C4.87857 23.4562 2.51045 22.7866 0.0486755 22.6667L-0.0486755 24.6643C2.13749 24.7708 4.15663 25.3652 5.64454 26.3023L6.7104 24.6099ZM10.0498 29.8235C10.0498 27.7324 8.73362 25.8842 6.7104 24.6099L5.64454 26.3023C7.29955 27.3446 8.04979 28.6385 8.04979 29.8235H10.0498ZM6.71039 35.0371C8.73362 33.7629 10.0498 31.9147 10.0498 29.8235L8.04979 29.8235C8.04979 31.0086 7.29955 32.3024 5.64454 33.3448L6.71039 35.0371ZM0.0486755 36.9804C2.51044 36.8604 4.87856 36.1908 6.71039 35.0371L5.64454 33.3448C4.15663 34.2819 2.13749 34.8762 -0.0486755 34.9828L0.0486755 36.9804ZM1 50V35.9816H-1V50H1ZM10 59C5.02943 59 1 54.9706 1 50H-1C-1 56.0751 3.92486 61 10 61V59ZM270 59H10V61H270V59ZM279 50C279 54.9706 274.971 59 270 59V61C276.075 61 281 56.0751 281 50H279ZM279 10V50H281V10H279ZM270 1C274.971 1 279 5.02944 279 10H281C281 3.92487 276.075 -1 270 -1V1ZM10 1H270V-1H10V1Z" fill="#272727" mask="url(#path-1-inside-1_2623_9914)"/>
</g>
<path d="M256 36.6469L264 29.5881L256 22.5293" stroke="white" stroke-width="1.5" stroke-linecap="round" stroke-linejoin="round"/>
<path d="M27.506 33.482H28.982V39.422H27.506V33.482ZM20.9 32.96H35.606V34.202H20.9V32.96ZM27.488 25.922H28.802V26.336C28.802 29.144 25.76 31.214 22.34 31.736L21.818 30.548C24.752 30.152 27.488 28.37 27.488 26.336V25.922ZM27.686 25.922H28.982V26.336C28.982 28.352 31.736 30.152 34.652 30.548L34.112 31.736C30.71 31.232 27.686 29.108 27.686 26.336V25.922ZM22.322 25.13H34.184V26.354H22.322V25.13ZM27.506 23.132H28.982V25.562H27.506V23.132ZM40.6086 26.192H41.8326V27.002C41.8326 29.936 40.0506 32.348 37.3326 33.302L36.5946 32.132C39.0066 31.304 40.6086 29.288 40.6086 27.002V26.192ZM40.8606 26.192H42.1026V27.002C42.1026 29.162 43.7586 31.07 46.1706 31.826L45.4326 33.014C42.7146 32.114 40.8606 29.81 40.8606 27.002V26.192ZM37.0086 25.31H45.6846V26.516H37.0086V25.31ZM40.6086 23.24H42.1026V25.76H40.6086V23.24ZM45.1446 28.136H49.2486V29.378H45.1446V28.136ZM48.4386 23.15H49.9326V35.282H48.4386V23.15ZM39.5466 37.82H50.3826V39.044H39.5466V37.82ZM39.5466 34.202H41.0406V38.486H39.5466V34.202ZM56.1592 23.978H57.4012V25.634C57.4012 28.766 55.6372 31.358 52.9192 32.42L52.1272 31.214C54.5752 30.314 56.1592 28.118 56.1592 25.634V23.978ZM56.4292 23.978H57.6532V25.742C57.6532 27.938 59.2732 29.972 61.6132 30.782L60.8212 31.952C58.2112 30.98 56.4292 28.568 56.4292 25.742V23.978ZM63.3412 23.132H64.8352V32.996H63.3412V23.132ZM64.4212 27.326H67.2472V28.586H64.4212V27.326ZM59.6512 33.446C62.9812 33.446 64.9972 34.544 64.9972 36.416C64.9972 38.288 62.9812 39.368 59.6512 39.368C56.3212 39.368 54.3052 38.288 54.3052 36.416C54.3052 34.544 56.3212 33.446 59.6512 33.446ZM59.6512 34.634C57.2392 34.634 55.7632 35.282 55.7632 36.416C55.7632 37.55 57.2392 38.198 59.6512 38.198C62.0632 38.198 63.5392 37.55 63.5392 36.416C63.5392 35.282 62.0632 34.634 59.6512 34.634ZM74.4818 31.772H75.9578V34.58H74.4818V31.772ZM67.8578 30.98H82.5638V32.204H67.8578V30.98ZM69.2258 23.636H81.1778V24.86H69.2258V23.636ZM69.2978 28.262H81.1058V29.486H69.2978V28.262ZM71.6918 24.176H73.1858V29.054H71.6918V24.176ZM77.2358 24.176H78.7118V29.054H77.2358V24.176ZM69.6578 34.094H80.7638V39.188H69.6578V34.094ZM79.3058 35.282H71.1338V37.982H79.3058V35.282ZM98.3082 23.132H99.8202V39.404H98.3082V23.132ZM99.4602 29.522H102.484V30.8H99.4602V29.522ZM87.9402 24.5H89.4162V28.802H94.0602V24.5H95.5362V35.498H87.9402V24.5ZM89.4162 29.99V34.274H94.0602V29.99H89.4162ZM102.969 36.164H117.711V37.406H102.969V36.164ZM109.557 32.672H111.051V36.686H109.557V32.672ZM104.751 24.338H115.893V29.27H106.281V32.528H104.805V28.064H114.417V25.544H104.751V24.338ZM104.805 31.898H116.271V33.122H104.805V31.898ZM129.625 23.114H131.137V39.404H129.625V23.114ZM130.723 29.72H133.729V30.962H130.723V29.72ZM125.467 24.878H126.925C126.925 29.504 124.801 33.68 119.545 36.326L118.717 35.174C123.217 32.888 125.467 29.414 125.467 25.112V24.878ZM119.473 24.878H126.241V26.102H119.473V24.878ZM146.13 23.132H147.624V39.404H146.13V23.132ZM141.36 24.878H142.836C142.836 29.594 140.712 33.716 135.276 36.38L134.484 35.174C139.182 32.906 141.36 29.45 141.36 25.13V24.878ZM135.222 24.878H142.008V26.102H135.222V24.878Z" fill="white"/>
<defs>
<filter id="filter0_b_2623_9914" x="-4" y="-4" width="288" height="68" filterUnits="userSpaceOnUse" color-interpolation-filters="sRGB">
<feFlood flood-opacity="0" result="BackgroundImageFix"/>
<feGaussianBlur in="BackgroundImageFix" stdDeviation="2"/>
<feComposite in2="SourceAlpha" operator="in" result="effect1_backgroundBlur_2623_9914"/>
<feBlend mode="normal" in="SourceGraphic" in2="effect1_backgroundBlur_2623_9914" result="shape"/>
</filter>
</defs>
</svg>
